<?xml version="1.0" encoding="utf-8"?>
<svg version="1.1" xmlns:xlink="http://www.w3.org/1999/xlink" width="24px" height="24px" xmlns="http://www.w3.org/2000/svg">
  <g transform="matrix(1 0 0 1 -174 -113 )">
    <path d="M 186 114  C 192.16 114  197 118.84  197 125  C 197 131.16  192.16 136  186 136  C 179.84 136  175 131.16  175 125  C 175 118.84  179.84 114  186 114  Z " fill-rule="nonzero" fill="#ffffff" stroke="none" />
    <path d="M 186 114  C 192.16 114  197 118.84  197 125  C 197 131.16  192.16 136  186 136  C 179.84 136  175 131.16  175 125  C 175 118.84  179.84 114  186 114  Z " stroke-width="2" stroke="#cdcdcd" fill="none" />
  </g>
</svg>