<?xml version="1.0" encoding="utf-8"?>
<svg version="1.1" xmlns:xlink="http://www.w3.org/1999/xlink" width="10px" height="10px" xmlns="http://www.w3.org/2000/svg">
  <g transform="matrix(1 0 0 1 -352 -67 )">
    <path d="M 4.019963511235957 5.99539780898877  L 1.2337783426966276 5.99539780898877  C 0.6765413202247181 5.99539780898877  0.22544466292134757 5.544301151685396  0.22544466292134757 4.987064129213486  C 0.22544466292134757 4.456362191011237  0.6765413202247181 4.00526553370787  1.2337783426966276 4.005265561797756  L 4.019963511235954 4.005265561797756  L 4.019963511235954 1.1925453089887625  C 4.019963511235954 0.6618433707865137  4.471060168539324 0.2107467134831431  5.028297191011234 0.2107467134831431  C 5.558999129213483 0.2107467134831431  6.010095786516853 0.6618433707865137  6.010095786516853 1.1925453089887625  L 6.010095786516853 4.005265561797749  L 8.82281603932584 4.005265561797749  C 9.353517977528089 4.005265561797749  9.80461463483146 4.456362219101123  9.80461460674157 4.987064129213479  C 9.80461460674157 5.544301151685389  9.3535179494382 5.995397808988763  8.82281603932584 5.995397808988763  L 6.010095786516853 5.995397808988763  L 6.010095786516853 8.781582977528089  C 6.010095786516853 9.338819999999998  5.558999129213486 9.789916657303365  5.028297191011237 9.789916657303365  C 4.471060168539328 9.789916657303365  4.019963511235957 9.338819999999998  4.019963511235957 8.781582977528089  L 4.019963511235957 5.99539780898877  Z " fill-rule="nonzero" fill="#478bf8" stroke="none" transform="matrix(1 0 0 1 352 67 )" />
  </g>
</svg>