<?xml version="1.0" encoding="utf-8"?>
<svg version="1.1" xmlns:xlink="http://www.w3.org/1999/xlink" width="23px" height="23px" xmlns="http://www.w3.org/2000/svg">
  <g transform="matrix(1 0 0 1 -338 -53 )">
    <path d="M 2 21  L 13.828167112593633 21  C 14.336756470037455 20.995355087455113  14.769057433286516 21.423199339742848  14.769057406367041 21.95171280435538  C 14.769057406367041 22.4550589725472  14.336756443117977 22.882903224834934  13.828167112593633 22.88290319819298  L 0.9862858707865167 22.88290319819298  C 0.4522670575842694 22.88290319819298  0.019966094335205464 22.455058945905247  0 21.95171280435538  L 0 1.138348806903742  C 0.019966094335205464 0.6098353422912093  0.4522670575842694 0.18199109000347644  0.9862858707865167 0.18199109000347644  L 21.991026260533705 0.18199109000347644  C 22.525045073735953 0.18199109000347644  22.957346036985015 0.6098353422912093  23 1.138348806903742  L 23 13.621333746090583  C 22.957346036985015 14.149847210703117  22.525045073735953 14.577691462990847  21.991026260533705 14.577691462990847  C 21.482436903089887 14.577691462990847  21.05013593984082 14.149847210703117  21 13.621333746090583  L 21 2  L 2 2  L 2 21  Z " fill-rule="nonzero" fill="#478bf8" stroke="none" transform="matrix(1 0 0 1 338 53 )" />
  </g>
</svg>