<?xml version="1.0" encoding="utf-8"?>
<svg version="1.1" xmlns:xlink="http://www.w3.org/1999/xlink" width="19px" height="9px" xmlns="http://www.w3.org/2000/svg">
  <g transform="matrix(1 0 0 1 -338 -64 )">
    <path d="M 15.495067917880425 5.405467130509939  L 0.9302481176307393 5.405467130509939  C 0.4074084422249964 5.405467130509939  0.009054373699541757 4.989070216076058  0.009054373699541757 4.474697579948142  C 0.009054373699541757 3.984818867761454  0.40740841586905235 3.568421953327573  0.9302481176307393 3.568421953327573  L 15.495067917880425 3.568421953327573  C 16.017907593286168 3.568421953327573  16.44115877791649 3.984818867761454  16.44115877791649 4.474697579948142  C 16.44115877791649 4.989070216076058  16.017907593286168 5.405467130509939  15.495067917880425 5.405467130509939  Z M 13.528194823137746 2.0008100950734637  L 4.316257515605493 2.0008100950734637  C 3.7934178401997496 2.0008100950734637  3.3701666555694265 1.5844131806395865  3.3701666555694265 1.07004054451167  C 3.3701666555694265 0.5801618323249788  3.7934178401997496 0.16376491789110156  4.316257515605493 0.16376491789110156  L 13.528194823137746 0.16376491789110156  C 14.051034498543487 0.16376491789110156  14.449388567068938 0.5801618323249788  14.449388540712997 1.07004054451167  C 14.449388540712997 1.5844131806395865  14.051034498543487 2.0008100950734637  13.528194823137746 2.0008100950734637  Z M 17.910089313358306 2.0008100950734637  L 17.113381229019282 2.0008100950734637  C 16.59054155361354 2.0008100950734637  16.167290368983217 1.5844131806395865  16.167290368983217 1.07004054451167  C 16.167290368983217 0.5801618323249788  16.59054155361354 0.16376491789110156  17.113381229019282 0.16376491789110156  L 17.910089313358306 0.16376491789110156  C 18.432928988764047 0.16376491789110156  18.856180173394367 0.5801618323249788  18.856180173394367 1.07004054451167  C 18.856180173394367 1.5844131806395865  18.432928988764047 2.0008100950734637  17.910089313358306 2.0008100950734637  Z M 12.382926928838948 8.810124165946414  L 4.316257515605493 8.810124165946414  C 3.7934178401997496 8.810124165946414  3.3701666555694265 8.39372725151253  3.3701666555694265 7.879354615384614  C 3.3701666555694265 7.389475903197929  3.7934178401997496 6.973078988764046  4.316257515605493 6.973078988764046  L 12.382926928838948 6.973078988764046  C 12.88086948813982 6.973078988764046  13.304120672770148 7.389475903197929  13.304120672770148 7.879354615384614  C 13.304120672770148 8.39372725151253  12.880869488139826 8.810124165946414  12.382926928838948 8.810124165946414  Z " fill-rule="nonzero" fill="#478bf8" stroke="none" transform="matrix(1 0 0 1 338 64 )" />
  </g>
</svg>