<?xml version="1.0" encoding="utf-8"?>
<svg version="1.1" xmlns:xlink="http://www.w3.org/1999/xlink" width="24px" height="24px" xmlns="http://www.w3.org/2000/svg">
  <g transform="matrix(1 0 0 1 -297 -53 )">
    <path d="M 2.0625 12  C 2.0625 17.4883359375  6.5116640625 21.9375  12 21.9375  C 17.4883359375 21.9375  21.9375 17.4883359375  21.9375 12  C 21.9375 6.5116640625  17.4883359375 2.0625  12 2.0625  C 6.5116640625 2.0625  2.0625 6.5116640625  2.0625 12  Z M 24 12  C 24 18.627421875  18.627421875 24  12 24  C 5.3725781249999995 24  0 18.627421875  0 12  C 0 5.3725781249999995  5.3725781249999995 0  12 0  C 18.627421875 0  24 5.3725781249999995  24 12  Z " fill-rule="nonzero" fill="#fe9400" stroke="none" transform="matrix(1 0 0 1 297 53 )" />
  </g>
</svg>