<?xml version="1.0" encoding="utf-8"?>
<svg version="1.1" xmlns:xlink="http://www.w3.org/1999/xlink" width="12px" height="6px" xmlns="http://www.w3.org/2000/svg">
  <g transform="matrix(1 0 0 1 -431 -101 )">
    <path d="M 11.999634146341464 4.842551020408165  C 11.998827643952222 5.449390013188292  11.411100259664057 5.941161906164103  10.685853658536587 5.9418367346938785  L 1.4484146341463426 5.9418367346938785  C 0.7229659777475136 5.941161905764586  0.13507479554964164 5.449252957394939  0.1342682926829274 4.842244897959182  L 0.1342682926829274 1.1060204081632652  C 0.13507479554964164 0.49901234872750855  0.7229659777475115 0.007103400357864905  1.4484146341463426 0.006428571428570801  L 10.685853658536583 0.006428571428569062  C 11.411242933729007 0.007103696982562607  11.999029262903134 0.4990618705919343  11.999634146341464 1.1060204081632652  L 11.999634146341464 4.842551020408165  Z M 10.685853658536587 0.6186734693877545  L 1.4484146341463426 0.6186734693877545  C 1.1271951219512195 0.6186734693877545  0.8659756097560982 0.8372448979591809  0.8659756097560982 1.1060204081632652  L 0.8659756097560982 4.842551020408165  C 0.8659756097560982 5.111326530612242  1.1271951219512217 5.329897959183674  1.4484146341463426 5.329897959183674  L 10.685853658536587 5.329897959183674  C 11.006707317073172 5.329897959183674  11.267926829268292 5.111326530612246  11.267926829268292 4.842551020408165  L 11.267926829268292 1.1060204081632652  C 11.267926829268292 0.8372448979591844  11.006707317073172 0.6186734693877545  10.685853658536587 0.6186734693877545  Z " fill-rule="nonzero" fill="#323333" stroke="none" transform="matrix(1 0 0 1 431 101 )" />
  </g>
</svg>