<?xml version="1.0" encoding="utf-8"?>
<svg version="1.1" xmlns:xlink="http://www.w3.org/1999/xlink" width="7px" height="11px" xmlns="http://www.w3.org/2000/svg">
  <g transform="matrix(1 0 0 1 -8 -11 )">
    <path d="M 5.369451612903227 0.06812500000000021  C 5.4841612903225805 0.06800000000000139  5.591419354838711 0.13387500000000152  5.655548387096774 0.24412500000000037  C 5.719564516129033 0.3542500000000004  5.73198387096774 0.4941250000000003  5.688629032258065 0.6171249999999997  L 4.618758064516132 3.65925  L 6.6345322580645165 3.65925  C 6.7700161290322605 3.65925  6.892741935483873 3.7509999999999977  6.94874193548387 3.8937500000000007  C 7.004633017639604 4.036466488601347  6.9834761171815645 4.201833060193261  6.893983870967743 4.3217500000000015  L 1.952096774193549 10.840250000000001  C 1.8472096774193556 10.979625000000002  1.673451612903226 11.017375000000001  1.5320967741935492 10.931750000000001  C 1.3905161290322583 10.846125  1.3183709677419364 10.65925  1.3574354838709672 10.480125000000001  L 2.277596774193549 6.455625000000001  L 0.4265483870967749 6.455625000000001  C 0.3130806451612899 6.455500000000002  0.2069516129032256 6.39075  0.14270967741935436 6.2826249999999995  C 0.07828803939541959 6.173199136531952  0.06419009384878213 6.036567394242834  0.10466129032257979 5.913874999999997  L 1.9438548387096757 0.3251249999999981  C 1.9945483870967737 0.17012499999999875  2.1226935483870957 0.06787499999999724  2.265854838709676 0.06812499999999666  L 5.36933870967742 0.06812499999999666  Z M 4.658500000000002 0.9941250000000004  L 2.6140483870967746 0.9941250000000004  L 1.1213548387096777 5.52975  L 3.3518709677419354 5.52975  L 2.6893548387096784 8.427500000000002  L 5.602370967741935 4.5851250000000014  L 3.395564516129032 4.5851250000000014  L 4.658500000000002 0.9941250000000004  Z " fill-rule="nonzero" fill="#478bf8" stroke="none" transform="matrix(1 0 0 1 8 11 )" />
  </g>
</svg>