<?xml version="1.0" encoding="utf-8"?>
<svg version="1.1" xmlns:xlink="http://www.w3.org/1999/xlink" width="23px" height="24px" xmlns="http://www.w3.org/2000/svg">
  <g transform="matrix(1 0 0 1 -12 -108 )">
    <path d="M 10.530523255813954 2.521978021978022  C 10.530523255813954 2.977157760849555  10.904703879138507 3.3461538461538463  11.366279069767442 3.3461538461538463  C 11.827854260396377 3.3461538461538463  12.202034883720932 2.977157760849555  12.202034883720932 2.521978021978022  L 12.202034883720932 0.8736263736263736  C 12.202034883720932 0.41844663475484056  11.827854260396377 0.049450549450549455  11.366279069767442 0.049450549450549455  C 10.904703879138507 0.049450549450549455  10.530523255813954 0.41844663475484056  10.530523255813954 0.8736263736263736  L 10.530523255813954 2.521978021978022  Z M 0.2565770348837213 5.0942307692307685  L 1.4383357558139538 6.2604395604395595  C 1.5941533163972348 6.408847999897833  1.8023177397432855 6.491795434840011  2.0189451768992934 6.491795434840011  C 2.480520367528227 6.491795434840011  2.854700990852782 6.122799349535718  2.854700990852782 5.667619610664186  C 2.854700990852782 5.45399370034885  2.7705881122995 5.248713542782557  2.620094476744186 5.095054945054946  L 1.4383357558139538 3.928846153846153  C 1.2825181952306715 3.7804377143878796  1.0743537718846223 3.697490279445704  0.8577263347286137 3.697490279445704  C 0.3961511440996801 3.697490279445704  0.02197052077512564 4.066486364749995  0.02197052077512564 4.521666103621528  C 0.02197052077512564 4.735292013936865  0.10608339932840798 4.940572171503156  0.2565770348837213 5.0942307692307685  Z M 22.679069767441863 5.918406593406594  C 23.00533374206598 5.596566056467736  23.00533374206598 5.074862514960837  22.679069767441863 4.753021978021978  C 22.35270724621462 4.431278622253134  21.82367356773887 4.431278622253134  21.497311046511626 4.753021978021978  L 20.315552325581393 5.918406593406594  C 20.16505869002607 6.072065191134209  20.080945811472777 6.277345348700511  20.080945811472777 6.490971259015858  C 20.080945811472777 6.94615099788739  20.45512643479733 7.3151470831916825  20.916701625426263 7.3151470831916825  C 21.133329062582284 7.3151470831916825  21.341493485928346 7.2321996482494955  21.497311046511626 7.083791208791209  L 22.679069767441863 5.918406593406594  Z M 21.813226744186046 22.302197802197803  L 20.559593023255815 22.302197802197803  L 20.559593023255815 13.236263736263737  C 20.559593023255815 8.229395604395604  16.443495639534884 4.17032967032967  11.366279069767442 4.17032967032967  C 6.289062500000001 4.17032967032967  2.17296511627907 8.229395604395604  2.17296511627907 13.236263736263737  L 2.17296511627907 22.302197802197803  L 0.9193313953488372 22.302197802197803  C 0.457756204719904 22.302197802197803  0.08357558139534883 22.671193887502096  0.08357558139534883 23.126373626373628  C 0.08357558139534883 23.58155336524516  0.457756204719904 23.950549450549453  0.9193313953488372 23.950549450549453  C 0.9193313953488372 23.950549450549453  0.9193313953488372 23.950549450549453  0.9193313953488372 24  L 21.813226744186046 24  C 21.813226744186046 23.950549450549453  21.813226744186046 23.950549450549453  21.813226744186046 23.950549450549453  C 22.274801934814977 23.950549450549453  22.648982558139537 23.58155336524516  22.648982558139537 23.126373626373628  C 22.648982558139537 22.671193887502096  22.274801934814977 22.302197802197803  21.813226744186046 22.302197802197803  Z M 18.888081395348838 22.302197802197803  L 12.202034883720932 22.302197802197803  L 12.202034883720932 19.005494505494504  C 12.202034883720932 18.55031476662297  11.827854260396377 18.18131868131868  11.366279069767442 18.18131868131868  C 10.904703879138507 18.18131868131868  10.530523255813954 18.55031476662297  10.530523255813954 19.005494505494504  L 10.530523255813954 22.302197802197803  L 3.8444767441860463 22.302197802197803  L 3.8444767441860463 13.236263736263737  C 3.8444767441860463 9.139285714285716  7.211736918604653 5.818681318681318  11.366279069767442 5.818681318681318  C 15.520821220930232 5.818681318681318  18.888081395348838 9.139285714285716  18.888081395348838 13.236263736263737  L 18.888081395348838 22.302197802197803  Z " fill-rule="nonzero" fill="#1abc9c" stroke="none" transform="matrix(1 0 0 1 12 108 )" />
  </g>
</svg>