<?xml version="1.0" encoding="utf-8"?>
<svg version="1.1" xmlns:xlink="http://www.w3.org/1999/xlink" width="36px" height="36px" xmlns="http://www.w3.org/2000/svg">
  <g transform="matrix(1 0 0 1 -218 -22 )">
    <path d="M 18.04946209766934 0.142788626799945  C 18.03297470806112 0.142788626799945  18.01648732636065 0.14281146085727872  17.999999999999996 0.14285712890624935  C 8.139941645591403 0.14592377293934813  0.14841100049776607 8.139940305028738  0.14841100049776607 17.99999913632627  C 0.14841100049776607 21.757604967120173  1.3337570859143564 25.419456329096867  3.5357142857142843 28.46428572823661  L 1.9285714285714277 33.35714284319196  C 1.818082067052166 33.67662069417984  1.9015044103026804 34.03116565299452  2.142857142857143 34.26785712890625  C 2.379968895722236 34.507999286611486  2.730436305162993 34.59733412183761  3.053571428571429 34.49999999999999  L 8.142857142857142 32.857142871093735  C 11.076465732227884 34.813236828225094  14.52350649319052 35.85707436898745  18.04946209766934 35.85707436898745  C 27.911689780924096 35.85707436898745  35.9066049687631 27.86215918114845  35.9066049687631 17.999931497893694  C 35.9066049687631 8.137703814638947  27.911689780924096 0.142788626799945  18.04946209766934 0.142788626799945  Z M 28.517857156808038 22.91071427176339  C 28.705114015253848 23.721893782155863  28.661817225887056 24.569273717710963  28.392857142857142 25.35714287109375  C 27.64951692370796 26.69793498547321  26.334027524359506 27.62535501563661  24.821428585379458 27.875000013950892  C 23.89285714285714 28.071428571428577  22.66071428571428 28.232142857142858  18.571428557477674 26.53571429966518  C 14.935908581227535 24.77763795416882  11.848891658340225 22.061063048136415  9.642857142857135 18.67857141462054  C 8.43232217257245 17.135380155139202  7.694296451744707 15.274811098820773  7.517857156808027 13.321428557477676  C 7.46152585758642 11.680315613164455  8.111717721390777 10.09384745085251  9.303571414620528 8.964285728236607  C 9.799547586550329 8.53777419391555  10.43526131211814 8.308917254499082  11.089285714285708 8.321428585379465  L 11.678571428571423 8.321428585379465  C 12.196428557477672 8.321428585379465  12.464285700334816 8.321428585379465  12.821428585379458 9.196428557477677  C 13.178571470424103 10.07142852957589  14.285714313616065 12.767857114955357  14.410714285714283 13.053571414620531  C 14.601271168573561 13.339345914227916  14.634845870174441 13.701952748174747  14.499999986049104 14.017857128906249  C 14.346877718602125 14.320278075265604  14.148122512638011 14.5973307913149  13.91071427176339 14.839285714285712  C 13.66071428571428 15.142857128906249  13.392857142857139 15.375  13.142857156808036 15.696428571428571  C 12.786934224710466 15.956877127038883  12.693315668345218 16.448374547956416  12.928571442522323 16.821428571428573  C 13.715545715982437 18.145206692509422  14.68992679797586 19.348146295209723  15.821428585379461 20.39285712890625  C 17.043828735660405 21.513668340952357  18.467832620621618 22.39230904650451  20.017857128906247 22.982142857142854  C 20.434578235261547 23.18467487351962  20.933339934606664 23.10629804149238  21.26785714285714 22.785714299665177  C 21.76945806758848 22.220546410705175  22.234679109734127 21.624109172525444  22.66071428571428 20.999999999999996  C 22.929939880646504 20.564091518267062  23.48507315000209 20.402177648038354  23.94642857142857 20.625  C 24.428571428571423 20.785714285714285  26.98214284319196 22.053571414620535  27.51785712890625 22.30357144252232  C 28.053571414620535 22.553571470424107  28.392857142857142 22.696428599330353  28.517857156808038 22.91071427176339  Z " fill-rule="nonzero" fill="#999999" stroke="none" transform="matrix(1 0 0 1 218 22 )" />
  </g>
</svg>