<?xml version="1.0" encoding="utf-8"?>
<svg version="1.1" xmlns:xlink="http://www.w3.org/1999/xlink" width="24px" height="18px" xmlns="http://www.w3.org/2000/svg">
  <g transform="matrix(1 0 0 1 -12 -16 )">
    <path d="M 4.421611940298508 6.216556291390729  C 5.119266534514925 2.701702936154801  8.225449883395523 0.05108799151490049  11.951675909514924 0.05108799151490049  C 15.677901912313432 0.05108799151490049  18.783232416044775 2.7017029361548013  19.4808869869403 6.217407747826987  C 22.082807858923744 6.92176320940945  23.889250399951234 9.279353241494873  23.889250399951234 11.97076740598313  C 23.889250399951234 15.261606600392243  21.218121210980513 17.929911340160125  17.921825163246268 17.931882693501656  L 16.216068236940295 17.931882693501656  C 15.745091543571613 17.931804941993796  15.36333079364411 17.55061321784415  15.36333079364411 17.08041628078436  C 15.36333079364411 16.610219343724566  15.745091543571613 16.22902761957491  16.216068236940295 16.22894986806705  L 17.921825163246268 16.22894986806705  C 20.274831503974053 16.225915939018876  22.180709936973408 14.320733937572633  22.180709936973408 11.971621343514105  C 22.180709936973408 9.694350816638261  20.38566774213995 7.82031773063202  18.10689979011194 7.718543046357617  L 17.921825163246268 7.714285717611755  L 17.91841364272388 7.509933774834438  C 17.810695896288607 4.297595611146878  15.171074931145192 1.749088875480484  11.95160697886079 1.749088875480484  C 8.811362865954894 1.749088875480484  6.207905284581221 4.177738814644741  5.995172714552236 7.3055818320571175  L 5.984938176305969 7.509933774834438  L 5.981526655783582 7.714285717611755  C 3.6285205132305935 7.717319925512105  1.7226423887255844 9.622501844939222  1.7226423887255844 11.971614241511382  C 1.7226423887255844 14.24888457244445  3.5176842850859535 16.12291756995008  5.79645202891791 16.224692516038907  L 5.981526655783582 16.22894986806705  L 7.687283582089552 16.22894986806705  C 8.15826027545824 16.22902761957491  8.54002102538574 16.610219343724562  8.54002102538574 17.08041628078436  C 8.54002102538574 17.550613217844152  8.158260275458236 17.931804941993796  7.687283582089552 17.931882693501656  L 5.981526655783582 17.931882693501656  C 5.979237896170813 17.931885321452693  5.976949135230175 17.93188663542854  5.974660374103692 17.93188663542854  C 2.677437987054179 17.93188663542854  0.004511120372348982 15.263385144353796  0.004511120372348982 11.971621734766286  C 0.004511120372348982 9.276992204798594  1.8154380129327854 6.917525395066985  4.421611940298508 6.216556291390729  Z " fill-rule="nonzero" fill="#0cbf99" stroke="none" transform="matrix(1 0 0 1 12 16 )" />
  </g>
</svg>