<?xml version="1.0" encoding="utf-8"?>
<svg version="1.1" xmlns:xlink="http://www.w3.org/1999/xlink" width="7px" height="4px" xmlns="http://www.w3.org/2000/svg">
  <g transform="matrix(1 0 0 1 -21 -24 )">
    <path d="M 6.676196435546874 3.6793650824652766  C 6.327535851471264 3.9891920125161624  5.762357019622488 3.9891920125161593  5.413696435546875 3.6793650824652766  L 3.5190535644531256 1.9952380859375012  L 1.6261964355468752 3.6793650824652766  C 1.4585417254358042 3.8283914914528956  1.2311531414949606 3.9121136562503285  0.9940535766601554 3.9121136562503285  C 0.5003192921554422 3.9121136562503285  0.10006857226525767 3.5563352385701656  0.10006857226525767 3.1174603190104175  C 0.10006857226525767 2.9067051502683685  0.19425600766236784 2.7045819645431743  0.3619107177734371 2.5555555555555554  L 2.8869107177734374 0.3119047526041656  C 3.054382376877424 0.1628753585043196  3.2816346015859583 0.0791375734878304  3.5186071411132835 0.0791375734878304  C 3.7555796806406043 0.0791375734878304  3.982831905349137 0.1628753585043196  4.150303564453125 0.3119047526041656  L 6.676196435546874 2.5555555555555554  C 6.843854503909199 2.704419252536877  6.938059512052751 2.906421230055574  6.938059512052751 3.1170634874131937  C 6.938059512052751 3.327705744770815  6.843854503909199 3.5297077222895106  6.676196435546874 3.6785714192708334  Z " fill-rule="nonzero" fill="#0cbf99" stroke="none" transform="matrix(1 0 0 1 21 24 )" />
  </g>
</svg>