<?xml version="1.0" encoding="utf-8"?>
<svg version="1.1" xmlns:xlink="http://www.w3.org/1999/xlink" width="80px" height="60px" xmlns="http://www.w3.org/2000/svg">
  <g transform="matrix(1 0 0 1 -69 -8 )">
    <path d="M 14.738706467661693 20.721854304635762  C 17.06422178171642 9.005676453849336  27.418166277985073 0.1702933050496683  39.83891969838308 0.1702933050496683  C 52.25967304104478 0.1702933050496683  62.61077472014925 9.005676453849338  64.93628995646766 20.724692492756624  C 73.6093595297458 23.072544031364835  79.63083466650411 30.931177471649573  79.63083466650411 39.90255801994377  C 79.63083466650411 50.87202200130748  70.72707070326837 59.76637113386708  59.73941721082089 59.77294231167218  L 54.05356078980098 59.77294231167218  C 52.48363847857205 59.772683139979314  51.211102645480366 58.50204405948049  51.211102645480366 56.93472093594786  C 51.211102645480366 55.36739781241522  52.48363847857205 54.096758731916374  54.05356078980098 54.096499560223506  L 59.73941721082089 54.096499560223506  C 67.5827716799135 54.08638646339626  73.93569978991137 47.735779791908776  73.93569978991137 39.90540447838035  C 73.93569978991137 32.314502722127536  67.95222580713316 26.0677257687734  60.35633263370647 25.728476821192054  L 59.73941721082089 25.714285725372516  L 59.72804547574626 25.03311258278146  C 59.36898632096202 14.325318703822926  50.57024977048397 5.830296251601614  39.83868992953597 5.830296251601614  C 29.371209553182986 5.830296251601614  20.693017615270737 13.925796048815805  19.983909048507456 24.351939440190392  L 19.949793921019893 25.03311258278146  L 19.93842218594527 25.714285725372516  C 12.095068377435311 25.72439975170702  5.7421412957519475 32.07500614979741  5.7421412957519475 39.905380805037936  C 5.7421412957519475 47.49628190814816  11.725614283619844 53.74305856650027  19.321506763059702 54.08230838679635  L 19.93842218594527 54.096499560223506  L 25.624278606965177 54.096499560223506  C 27.194200918194127 54.096758731916374  28.466736751285797 55.367397812415206  28.466736751285797 56.93472093594786  C 28.466736751285797 58.502044059480504  27.19420091819412 59.772683139979314  25.624278606965177 59.77294231167218  L 19.93842218594527 59.77294231167218  C 19.930792987236043 59.77295107150897  19.92316378410058 59.772955451428466  19.915534580345643 59.772955451428466  C 8.924793290180597 59.772955451428466  0.015037067907829941 50.87795048117932  0.015037067907829941 39.90540578255428  C 0.015037067907829941 30.923307349328645  6.051460043109285 23.058417983556616  14.738706467661693 20.721854304635762  Z " fill-rule="nonzero" fill="#2799ce" stroke="none" transform="matrix(1 0 0 1 69 8 )" />
  </g>
</svg>