<?xml version="1.0" encoding="utf-8"?>
<svg version="1.1" xmlns:xlink="http://www.w3.org/1999/xlink" width="23px" height="13px" xmlns="http://www.w3.org/2000/svg">
  <g transform="matrix(1 0 0 1 -99 -35 )">
    <path d="M 21.936074002511155 11.955357112630209  L 21.936074002511155 11.957936518012149  C 20.790474940548442 12.964874040677527  18.933458778759604 12.964874040677518  17.787859716796877 11.957936518012149  L 11.562604568917413 6.484523779296879  L 5.343216859654019 11.957936518012149  C 4.792351383574785 12.44227234722191  4.045217464912014 12.714369382813567  3.266176037597653 12.714369382813567  C 1.643906245653596 12.714369382813567  0.3287967374429895 11.558089525353038  0.3287967374429895 10.131746036783857  C 0.3287967374429895 9.446791738372198  0.6382697394620657 8.789891384765317  1.1891352155412933 8.305555555555555  L 9.485563786969866 1.0136904459635383  C 10.035827809740107 0.5293449151390387  10.782513690925292 0.2571971138354488  11.561137749372218 0.2571971138354488  C 12.339761807819128 0.2571971138354488  13.086447689004308 0.5293449151390387  13.636711711774554 1.0136904459635383  L 21.936074002511155 8.305555555555555  C 22.486950512844512 8.78936257074485  22.796481253887613 9.445868997680616  22.796481253887613 10.13045633409288  C 22.796481253887613 10.81504367050515  22.486950512844512 11.47155009744091  21.936074002511155 11.955357112630209  Z " fill-rule="nonzero" fill="#2799ce" stroke="none" transform="matrix(1 0 0 1 99 35 )" />
  </g>
</svg>