<?xml version="1.0" encoding="utf-8"?>
<svg version="1.1" xmlns:xlink="http://www.w3.org/1999/xlink" width="21px" height="24px" xmlns="http://www.w3.org/2000/svg">
  <g transform="matrix(1 0 0 1 -342 -55 )">
    <path d="M 12.813078703703702 16.513186813186806  L 7.904976851851853 11.561538461538461  L 12.833333333333334 6.216758241758242  C 12.974281433230516 6.063968657168473  13.0527319691321 5.862304268879089  13.0527319691321 5.652773672737732  C 13.0527319691321 5.409308131903275  12.946914102780958 5.178300186026065  12.76365740740741 5.021703296703298  L 7.187962962962965 0.25961538461538625  C 7.041954292227042 0.1351250950808589  6.857523582332904 0.06689790463183276  6.667011984204269 0.06689790463183276  C 6.219797865426122 0.06689790463183276  5.856987761353421 0.43517414699667567  5.856018518518519 0.8901098901098901  L 5.856018518518519 9.49368131868132  L 1.4696759259259267 5.067032967032967  C 1.3179606833105333 4.914002078494701  1.1129586506557407 4.828139019299531  0.8993055555555556 4.828139019299531  C 0.4519161760657696 4.828139019299531  0.08923542483611349 5.197082703438963  0.08923542483611349 5.6521978021978025  C 0.08923542483611349 5.8719637171914645  0.17552832212582598 6.082625458967486  0.3289351851851854 6.2373626373626365  L 5.6453703703703715 11.602747252747253  L 0.3086805555555562 17.390109890109894  C 0.17970101243575853 17.54040625254988  0.10863037936593237 17.733157416959816  0.10863037936593237 17.932667381656056  C 0.10863037936593237 18.38830230026646  0.4717253744973714 18.757667381656056  0.9196257497363034 18.757667381656056  C 1.1335683192103885 18.757667381656056  1.3388443140696669 18.671669820547837  1.4907407407407411 18.518406593406592  L 5.856018518518519 13.783516483516483  L 5.856018518518519 23.078571428571422  C 5.8569100129650185 23.533374991993686  6.219120571142009 23.90184036357718  6.666203703703704 23.90274725274725  C 6.888696210465466 23.90300784265709  7.101462463149675 23.80999213563103  7.254398148148147 23.64560439560439  L 12.830092592592594 17.66538461538461  C 13.13315107543567 17.34042815091716  13.125595202326249 16.828736764708225  12.813078703703702 16.513186813186806  Z M 7.476388888888889 9.617307692307692  L 7.476388888888889 2.65879120879121  L 11.06550925925926 5.723901098901099  L 7.476388888888889 9.617307692307692  Z M 11.109259259259257 17.116483516483513  L 7.476388888888889 21.01236263736264  L 7.476388888888889 13.450549450549449  L 11.109259259259257 17.116483516483513  Z M 16.410300925925927 11.085989010989012  C 16.41274904233937 9.709761679430297  16.01193077313439 8.364019555728259  15.259027777777774 7.220604395604395  C 15.108542032013114 6.992214562580653  14.856045181806264 6.855160781851073  14.585763888888886 6.855160781851073  C 14.138129784820613 6.855160781851073  13.775250645122117 7.22430628031987  13.775250645122117 7.679670329670329  C 13.775250645122117 7.843149971217159  13.823023810556116 8.00293966809957  13.9125 8.138736263736266  C 14.486647077941072 9.01050052061483  14.792145743774444 10.036657834670715  14.789930555555557 11.08598901098901  C 14.792420971079304 12.134983302531001  14.48719646004121 13.160880316129948  13.913310185185184 14.032417582417583  C 13.823748352982022 14.168180586828829  13.775923510873335 14.32798324545018  13.775923510873335 14.49148351648352  C 13.775923510873335 14.946469535153417  14.138501398313691 15.315308579205777  14.585763888888886 15.315308579205777  C 14.855661038397413 15.315308579205777  15.107820872891631 15.178529495373466  15.258217592592587 14.950549450549449  C 16.011657054668397 13.80765495878666  16.412790835345813 12.462087589721417  16.410300925925927 11.085989010989012  Z M 20.968402777777776 11.21291208791209  C 20.968402777777776 9.696428571428573  20.679976851851848 8.22032967032967  20.112037037037037 6.824999999999999  C 19.83003194475179 6.130337155571985  19.481026006359315 5.465824109234864  19.070138888888888 4.841208791208792  C 18.919721911363368 4.61271821841837  18.667200288175327 4.475582458529614  18.396874999999998 4.475582458529614  C 17.949365422543845 4.475582458529614  17.58658723161013 4.844625265005359  17.58658723161013 5.299862637362638  C 17.58658723161013 5.4631801772139905  17.634279032623983 5.6228167897859676  17.72361111111111 5.758516483516484  C 18.78533740543987 7.371990996529346  19.350829888065665 9.27048472678973  19.34803240740741 11.212087912087913  C 19.349509758339583 13.15349287473134  18.7841311456549 15.051604316321388  17.72361111111111 16.665659340659346  C 17.643762603203726 16.79637367772738  17.60144715404002 16.947202220536663  17.60144715404002 17.101098689478846  C 17.60144715404002 17.55673360808925  17.96454214917146 17.92609868947885  18.412442524410388 17.92609868947885  C 18.673000650595018 17.92609868947885  18.91769106057935 17.79874606551143  19.070138888888888 17.58379120879121  C 20.310915586113477 15.699114942978177  20.97176312483421 13.481204245122237  20.968402777777776 11.21291208791209  Z " fill-rule="nonzero" fill="#999999" stroke="none" transform="matrix(1 0 0 1 342 55 )" />
  </g>
</svg>