<?xml version="1.0" encoding="utf-8"?>
<svg version="1.1" xmlns:xlink="http://www.w3.org/1999/xlink" width="16px" height="16px" xmlns="http://www.w3.org/2000/svg">
  <g>
    <path d="M 14.21031746031746 7.248511904761903  C 13.83829365079365 4.14831349206349  11.199404761904763 1.7475198412698394  8 1.7475198412698403  C 6.129960317460317 1.7475198412698403  4.448412698412699 2.568452380952381  3.302579365079366 3.873015873015873  L 4.671626984126984 5.24206349206349  C 4.850198412698413 5.420634920634919  4.723710317460317 5.728174603174603  4.470734126984127 5.728174603174603  L 0.3263888888888889 5.728174603174603  C 0.1701388888888889 5.728174603174603  0.04117063492063492 5.601686507936506  0.04117063492063492 5.442956349206349  L 0.04117063492063492 1.2961309523809523  C 0.04117063492063492 1.0431547619047619  0.3462301587301587 0.9166666666666657  0.527281746031746 1.0952380952380953  L 2.0972222222222223 2.6651785714285707  C 3.5530753968253967 1.0555555555555547  5.658730158730159 0.04365079365079365  8.002480158730158 0.04365079365079365  C 12.074900793650794 0.04365079365079365  15.433035714285714 3.101686507936508  15.904265873015873 7.0476190476190474  C 15.961309523809524 7.516369047619046  15.626488095238095 7.940476190476191  15.157738095238095 7.995039682539681  C 14.688988095238095 8.052083333333332  14.264880952380953 7.717261904761905  14.21031746031746 7.248511904761903  Z M 0.09821428571428481 8.95486111111111  C 0.04117063492063402 8.48611111111111  0.3759920634920626 8.062003968253968  0.8422619047619048 8.00496031746032  C 1.3110119047619047 7.947916666666667  1.7351190476190468 8.282738095238097  1.7896825396825407 8.751488095238097  C 2.16170634920635 11.84920634920635  4.800595238095238 14.252480158730158  8 14.252480158730158  C 9.870039682539682 14.252480158730158  11.551587301587304 13.431547619047619  12.697420634920634 12.126984126984127  L 11.328373015873014 10.757936507936506  C 11.149801587301583 10.579365079365076  11.27628968253968 10.271825396825395  11.529265873015872 10.271825396825395  L 15.67609126984127 10.271825396825395  C 15.83234126984127 10.271825396825395  15.961309523809524 10.39831349206349  15.961309523809524 10.557043650793648  L 15.961309523809524 14.703869047619047  C 15.961309523809524 14.956845238095237  15.65625 15.08333333333333  15.475198412698413 14.904761904761905  L 13.905257936507937 13.334821428571429  C 12.449404761904763 14.946924603174603  10.34375 15.958829365079366  8 15.958829365079366  C 3.927579365079365 15.958829365079366  0.5694444444444435 12.90079365079365  0.09821428571428481 8.95486111111111  Z " fill-rule="nonzero" fill="#e4e4e4" stroke="none" />
  </g>
</svg>