<?xml version="1.0" encoding="utf-8"?>
<svg version="1.1" xmlns:xlink="http://www.w3.org/1999/xlink" width="78px" height="89px" xmlns="http://www.w3.org/2000/svg">
  <g transform="matrix(1 0 0 1 -134 -73 )">
    <path d="M 47.59143518518518 61.23640109890108  L 29.361342592592596 42.87403846153846  L 47.66666666666667 23.053811813186815  C 48.19018818057049 22.487217103666424  48.4815758853478 21.73937833042662  48.4815758853478 20.96236903640242  C 48.4815758853478 20.05951765580798  48.088538096043564 19.202863189846656  47.407870370370375 18.62214972527473  L 26.698148148148157 0.9627403846153908  C 26.15583022827187 0.501088894258185  25.470801877236504 0.24807972967637984  24.76318736990157 0.24807972967637984  C 23.102106357297025 0.24807972967637984  21.754525970741277 1.613770795112672  22 3.3008241758241756  L 22 35.205734890109895  L 5.458796296296299 18.79024725274725  C 4.8952825380105525 18.222757707751185  4.1338464167213225 17.90434886323576  3.340277777777778 17.90434886323576  C 1.6785457968157158 17.90434886323576  0.33144586367699297 19.272515025252822  0.33144586367699297 20.96023351648352  C 0.33144586367699297 21.775198784585015  0.6519623393244964 22.556402743671097  1.22175925925926 23.130219780219775  L 20.968518518518522 43.026854395604396  L 1.14652777777778 64.48832417582419  C 0.6674609033328175 65.04567318653913  0.4034842662163202 65.76045875455931  0.4034842662163202 66.50030820697454  C 0.4034842662163202 68.18995436348813  1.7521228195616652 69.55968320697454  3.415752784734841 69.55968320697454  C 4.210396614210015 69.55968320697454  4.972850309401619 69.24077558453156  5.537037037037039 68.67242445054944  L 22 51.113873626373625  L 22 85.5830357142857  C 21.754237191012926 87.26959892864325  23.099590692813177 88.63599134826538  24.760185185185183 88.63935439560439  C 25.586585924586018 88.64032074985337  26.37686057741308 88.29538750296507  26.944907407407406 87.68578296703295  L 47.65462962962963 65.5091346153846  C 48.780275423046774 64.30408772631779  48.7522107514975 62.40656550245967  47.59143518518518 61.23640109890108  Z M 28 35.66418269230769  L 28 9.85968406593407  L 41.100462962962965 21.226133241758244  L 28 35.66418269230769  Z M 41.26296296296295 63.47362637362637  L 28 77.92084478021978  L 28 49.87912087912087  L 41.26296296296295 63.47362637362637  Z M 60.9525462962963 41.11054258241759  C 60.96163930011767 36.007032894554015  59.47288572878488 31.01657251915896  56.67638888888887 26.776407967032966  C 56.11744183319156 25.92946233623659  55.17959638956613 25.42122123269773  54.17569444444443 25.42122123269773  C 52.51305348647656 25.42122123269773  51.16521668188215 26.790135789519518  51.16521668188215 28.47877747252747  C 51.16521668188215 29.085014476596964  51.34265986777986 29.67756793586924  51.675 30.181146978021985  C 53.80754628949541 33.413939430613325  54.94225561973365 37.21927280357057  54.93402777777778 41.11054258241758  C 54.94327789258028 45.00056308021912  53.809586851581635 48.80493117231522  51.67800925925925 52.03688186813187  C 51.3453510253618 52.54033634282357  51.16771589752953 53.13293786854442  51.16771589752953 53.73925137362639  C 51.16771589752953 55.42649119286059  52.514433765165144 56.794269314554754  54.17569444444443 56.794269314554754  C 55.17816957119039 56.794269314554754  56.11476324216892 56.287046878676605  56.67337962962961 55.44162087912087  C 59.471869060196894 51.20338713883387  60.96179453128445 46.21357481188359  60.9525462962963 41.11054258241759  Z M 77.88263888888888 41.581215659340664  C 77.88263888888888 35.95758928571429  76.81134259259258 30.483722527472526  74.70185185185186 25.309375  C 73.65440436622094 22.733333618579447  72.35809659504889 20.269097738412622  70.83194444444443 17.95281593406594  C 70.27325281363537 17.105496726634787  69.33531535607979 16.596951617047317  68.33125 16.596951617047317  C 66.66907156944858 16.596951617047317  65.32160971740906 17.965485357728205  65.32160971740906 19.653657280219782  C 65.32160971740906 20.25929315716855  65.49875069260337 20.85127892878963  65.83055555555555 21.354498626373626  C 69.77411036306236 27.337799945462994  71.87451101281532 34.378047528511914  71.86412037037039 41.57815934065934  C 71.86960767383273 48.777536077128715  69.76962996957535 55.81636600635848  65.83055555555555 61.80182005494507  C 65.53397538332813 62.28655238823903  65.37680371500579 62.84587490115679  65.37680371500579 63.41657430681738  C 65.37680371500579 65.10622046333097  66.72544226835113 66.4759493068174  68.38907223352429 66.4759493068174  C 69.35685955935293 66.4759493068174  70.26570965358044 66.00368332627156  70.83194444444443 65.20655906593407  C 75.44054360556434 58.217551246877406  77.89512017795565 49.99279907566163  77.88263888888888 41.581215659340664  Z " fill-rule="nonzero" fill="#000000" stroke="none" fill-opacity="0.10196078431372549" transform="matrix(1 0 0 1 134 73 )" />
  </g>
</svg>