<?xml version="1.0" encoding="utf-8"?>
<svg version="1.1" xmlns:xlink="http://www.w3.org/1999/xlink" width="168px" height="155px" xmlns="http://www.w3.org/2000/svg">
  <g transform="matrix(1 0 0 1 -66 -158 )">
    <path d="M 167 27.55912  C 167.21456 21.83648  162.54792 17.15576  156.80944 18  L 144 18  L 144 6.750640000000001  C 144.324 3.3212800000000016  141.51152 0.5079199999999986  138.08128 0.5079199999999986  C 134.65104 0.5079199999999986  131.83768 3.3204000000000033  131 6.750640000000001  L 131 18  L 109 18  L 109 6.750640000000001  C 109.6476 3.3212800000000016  106.83512000000002 0.5079199999999986  103.40487999999999 0.5079199999999986  C 99.97464 0.5079199999999986  97.16216 3.3204000000000033  97 6.750640000000001  L 97 18  L 75 18  L 75 6.750640000000001  C 74.97384 3.3212800000000016  72.16136 0.5079199999999986  68.73024 0.5079199999999986  C 65.3 0.5079199999999986  62.48752 3.3204000000000033  63 6.750640000000001  L 63 18  L 41 18  L 41 6.750640000000001  C 40.28072 3.3212800000000016  37.46824 0.5079199999999986  34.038000000000004 0.5079199999999986  C 30.60864 0.5079199999999986  27.796160000000008 3.3204000000000033  28 6.750640000000001  L 28 18  L 11.149200000000002 18  C 5.4107199999999995 17.15576  0.7449599999999998 21.820639999999997  1 27.55912  L 1 131.6024  C 0.7449599999999998 137.34088  5.4107199999999995 142.00576  11.149200000000002 142  L 25.714960000000005 142  L 25.714960000000005 150.33056  C 25.71931822523044 152.62709637366686  27.579943626333133 154.48772177476957  29.87648 154  L 54.84648 154  C 57.14301637366688 154.48772177476957  59.003641774769555 152.62709637366686  59.008 150.33056  L 59.008 142  L 108.94888 142  L 108.94888 150.33056  C 108.95323822523042 152.62709637366686  110.81386362633312 154.48772177476957  113.1104 154  L 138.08128 154  C 140.37761603368466 154.487239477907  142.237959477907 152.62689603368466  142.24280000000002 150.33056  L 142.24280000000002 142  L 156.80944 142  C 162.54792 142.00576  167.21368 137.34088  167 131.6024  L 167 27.55912  Z M 154 30  L 154 129  L 14 129  L 14 30  L 154 30  Z " fill-rule="nonzero" fill="#ffffff" stroke="none" fill-opacity="0.996078431372549" transform="matrix(1 0 0 1 66 158 )" />
  </g>
</svg>