<?xml version="1.0" encoding="utf-8"?>
<svg version="1.1" xmlns:xlink="http://www.w3.org/1999/xlink" width="77px" height="77px" xmlns="http://www.w3.org/2000/svg">
  <g transform="matrix(1 0 0 1 -112 -197 )">
    <path d="M 32.72499999999999 1.019791666666677  C 34.53541666666665 0.7562500000000156  36.39166666666666 0.698958333333349  38.213541666666664 0.5499999999999948  C 42.99166666666666 0.6072916666666615  47.59791666666665 1.5354166666666642  52.04375 3.2770833333333362  C 55.02291666666667 4.434374999999998  56.42083333333333 7.447916666666667  55.35520833333334 10.301041666666665  C 54.27812500000001 13.199999999999992  51.19583333333334 14.563541666666655  48.147916666666674 13.38333333333333  C 44.97399322575579 12.127555019197008  41.59139694666482 11.4827041643437  38.17807463797226 11.4827041643437  C 27.051252394247832 11.4827041643437  17.05518589155435 18.284291066833365  12.970833333333339 28.634374999999995  C 6.496875000000005 44.98541666666665  17.244791666666668 63.27291666666665  34.627083333333324 65.49583333333332  C 35.804786343230916 65.65122090741387  36.991416169114714 65.72916583978154  38.17932596270197 65.72916583978154  C 52.2110952043404 65.72916583978154  63.93229989631615 55.039147821861654  65.22083333333332 41.06666666666666  C 65.58890003195124 36.829786982047594  64.96513172677496 32.56540869445888  63.3989583333333 28.611458333333324  C 63.11141976742283 27.941676203658353  62.96314057668558 27.220400535629313  62.96314057668558 26.491506491122294  C 62.96314057668558 24.34275436483919  64.24311957189344 22.400553417862856  66.21770833333332 21.55312500000002  C 66.90314329483316 21.250387043461014  67.64421149268244 21.094018584748508  68.39352541673277 21.094018584748508  C 70.63883462692885 21.094018584748508  72.64853379931537 22.487063802369576  73.43645833333332 24.589583333333337  C 75.84270833333335 30.547916666666683  76.79374999999997 36.746875  75.865625 43.09479166666667  C 73.58541666666667 58.666666666666664  65.003125 69.39166666666667  50.164583333333326 74.559375  C 27.98124999999999 82.27083333333333  4.07916666666665 67.44375  0.6645833333333151 44.21770833333334  C -2.3947916666666837 23.37500000000001  11.985416666666643 3.9760416666666654  32.72499999999999 1.019791666666677  Z " fill-rule="nonzero" fill="#ffffff" stroke="none" fill-opacity="0.996078431372549" transform="matrix(1 0 0 1 112 197 )" />
  </g>
</svg>