<?xml version="1.0" encoding="utf-8"?>
<svg version="1.1" xmlns:xlink="http://www.w3.org/1999/xlink" width="151px" height="159px" xmlns="http://www.w3.org/2000/svg">
  <g transform="matrix(1 0 0 1 -75 -161 )">
    <path d="M 28.3125 95  L 68 95  L 68 72  L 83 72  L 83 95  L 122.6875 95  C 127.02874999999999 95.26986607142857  130.54421875 98.80714285714284  130 103.16071428571429  L 130 150.48214285714286  C 130.5442236288134 154.83552212471966  127.0285535040466 158.3664642659327  122.6875 158  L 28.3125 158  C 23.966838816507188 158.37299107142857  20.443984374999992 154.8401379891224  21 150.48214285714286  L 21 103.16071428571429  C 20.443984375000003 98.80714285714284  23.959453125000003 95.26986607142857  28.3125 95  Z M 0.8611718750000013 54.53794642857143  L 0.8611718750000013 54.54977678571427  C 11.58456573450916 22.350206824105804  41.64232114386074 0.6375200233098564  75.49410156249999 0.6375200233098564  C 109.34588198113921 0.6375200233098564  139.40363739049081 22.350206824105804  150.12703125000002 54.54977678571429  L 135.203984375 59.5421875  C 126.64045825262971 33.76470494007672  102.58758250469415 16.376184810338103  75.49410156250002 16.376184810338103  C 48.400620620305865 16.376184810338103  24.347744872370313 33.76470494007672  15.784218750000008 59.5421875  L 0.8729687500000006 54.53794642857143  L 0.8611718750000013 54.53794642857143  Z M 30.7190625 64.53459821428571  L 30.70726562499998 64.53459821428571  C 37.13478013396966 45.20397318917375  55.17480361243268 32.165973620422925  75.49410156249999 32.165973620422925  C 95.81339951256732 32.165973620422925  113.8534229910303 45.20397318917375  120.2809375 64.53459821428571  L 105.34609375 69.52700892857142  C 101.05565110035458 56.64899330929583  89.03344339424488 47.96564782191483  75.49410156249999 47.96564782191483  C 61.95475973075512 47.96564782191483  49.93255202464541 56.64899330929583  45.642109375 69.52700892857143  L 30.7190625 64.53459821428571  Z M 114 111  L 37 111  L 37 142  L 114 142  L 114 111  Z " fill-rule="nonzero" fill="#ffffff" stroke="none" fill-opacity="0.996078431372549" transform="matrix(1 0 0 1 75 161 )" />
  </g>
</svg>