<?xml version="1.0" encoding="utf-8"?>
<svg version="1.1" xmlns:xlink="http://www.w3.org/1999/xlink" width="126px" height="144px" xmlns="http://www.w3.org/2000/svg">
  <g transform="matrix(1 0 0 1 -87 -165 )">
    <path d="M 76.87847222222221 99.07912087912085  L 47.429861111111116 69.36923076923077  L 77 37.300549450549454  C 77.8456885993831 36.38381194301084  78.31639181479261 35.17382561327453  78.31639181479261 33.916642036426396  C 78.31639181479261 32.455848791419655  77.68148461668575 31.06980111615639  76.58194444444446 30.13021978021979  L 43.127777777777794 1.5576923076923177  C 42.25172575336225 0.8107505704851534  41.14514149399743 0.40138742779099656  40.00207190522561 0.40138742779099656  C 37.318787192556734 0.40138742779099656  35.141926568120525 2.611044881980054  36 5.34065934065934  L 36 56.96208791208792  L 8.81805555555556 30.402197802197797  C 7.907764099863201 29.48401247096821  6.6777519039344435 28.968834115797186  5.395833333333334 28.968834115797186  C 2.711497056394618 28.968834115797186  0.5354125490166809 31.18249622063378  0.5354125490166809 33.91318681318682  C 0.5354125490166809 35.23178230314879  1.0531699327549557 36.49575275380492  1.9736111111111123 37.42417582417582  L 33.87222222222223 69.61648351648351  L 1.852083333333337 104.34065934065937  C 1.0782060746145512 105.24243751529929  0.6517822761955941 106.39894450175889  0.6517822761955941 107.59600428993633  C 0.6517822761955941 110.32981380159877  2.8303522469842286 112.54600428993632  5.51775449841782 112.54600428993632  C 6.801409915262331 112.54600428993632  8.033065884418 112.03001892328703  8.944444444444448 111.11043956043956  L 36 82.7010989010989  L 36 138.47142857142853  C 35.14146007779011 141.20024995196212  37.314723426852055 143.41104218146307  39.99722222222222 143.4164835164835  C 41.3321772627928 143.41804705594254  42.60877477889805 142.85995281378618  43.52638888888888 141.87362637362634  L 76.98055555555555 105.99230769230766  C 78.79890645261402 104.04256890550295  78.7535712139575 100.97242058824935  76.87847222222221 99.07912087912085  Z M 45 57.70384615384616  L 45 15.95274725274726  L 66.39305555555556 34.3434065934066  L 45 57.70384615384616  Z M 66.65555555555554 102.69890109890109  L 45 126.07417582417582  L 45 80.70329670329669  L 66.65555555555554 102.69890109890109  Z M 98.46180555555556 66.51593406593408  C 98.47649425403623 58.258570076581776  96.07158463880634 50.18411733436955  91.55416666666665 43.32362637362637  C 90.65125219207869 41.95328737548392  89.13627109083758 41.13096469110644  87.51458333333332 41.13096469110644  C 84.82877870892368 41.13096469110644  82.65150387073271 43.34583768191922  82.65150387073271 46.07802197802197  C 82.65150387073271 47.05889982730295  82.9381428633367 48.01763800859742  83.475 48.83241758241759  C 86.91988246764643 54.06300312368898  88.75287446264666 60.219947008024285  88.73958333333334 66.51593406593406  C 88.75452582647583 72.809899815186  86.92317876024725 78.96528189677969  83.47986111111109 84.1945054945055  C 82.94249011789213 85.00908352097296  82.65554106524002 85.96789947270108  82.65554106524002 86.94890109890112  C 82.65554106524002 89.6788172109205  84.83100838988216 91.89185147523466  87.51458333333332 91.89185147523466  C 89.13396623038447 91.89185147523466  90.64692523734979 91.07117697224079  91.54930555555552 89.70329670329669  C 96.06994232801037 82.84592975271997  98.47674501207487 74.7725255383285  98.46180555555556 66.51593406593408  Z M 125.81041666666665 67.27747252747254  C 125.81041666666665 58.17857142857144  124.0798611111111 49.321978021978026  120.67222222222222 40.949999999999996  C 118.98019166851076 36.78202293343191  116.88615603815589 32.79494465540919  114.42083333333332 29.047252747252752  C 113.51833146818021 27.676309310510216  112.00320172905197 26.853494751177678  110.38125 26.853494751177678  C 107.69619253526308 26.853494751177678  105.51952338966078 29.067751590032156  105.51952338966078 31.799175824175826  C 105.51952338966078 32.77908106328394  105.8056741957439 33.7369007387158  106.34166666666667 34.551098901098904  C 112.7120244326392 44.231945979176075  116.10497932839398 55.62290836073838  116.08819444444445 67.27252747252747  C 116.09705855003749 78.92095724838804  112.70478687392941 90.30962589792833  106.34166666666667 99.99395604395606  C 105.86257561922235 100.77824206636427  105.60868292424011 101.68321332321997  105.60868292424011 102.60659213687306  C 105.60868292424011 105.3404016485355  107.78725289502876 107.55659213687309  110.47465514646233 107.55659213687309  C 112.0380039035701 107.55659213687309  113.5061463634761 106.7924763930686  114.42083333333332 105.50274725274727  C 121.86549351668087 94.19468965786906  125.83057874900528 80.88722547073343  125.81041666666665 67.27747252747254  Z " fill-rule="nonzero" fill="#ffffff" stroke="none" fill-opacity="0.996078431372549" transform="matrix(1 0 0 1 87 165 )" />
  </g>
</svg>