<?xml version="1.0" encoding="utf-8"?>
<svg version="1.1" xmlns:xlink="http://www.w3.org/1999/xlink" width="51px" height="72px" xmlns="http://www.w3.org/2000/svg">
  <g transform="matrix(1 0 0 1 -127 -204 )">
    <path d="M 0.30127999999999133 40.750559999999965  C 0.6565168670812227 41.45718482801374  1.3795073175545696 41.903437408320016  2.1704000000000008 42  L 21.17488 42  L 16.75376 68.61311999999998  C 16.593142753466083 69.57097219411676  17.120721934237125 70.51153493901666  18.02184000000001 70.87384  C 18.28232 70.97152  18.542800000000014 71.03663999999998  18.802400000000006 71.03663999999998  C 19.46944000000002 71.03663999999998  20.10304000000002 70.71103999999997  20.509600000000006 70.14168000000001  L 49.64112 28.52383999999998  C 50.09220903455834 27.894075034955733  50.1487619123058 27.063497228038273  49.7872 26.37839999999997  C 49.42903675320355 25.69419971538707  48.72289424781164 25.263138118899633  47.95064000000001 26  L 27.727360000000008 26  L 33.31887999999999 2.8718399999999917  C 33.56008419715525 1.9186955729292805  33.09836822691963 0.9272561049950454  32.2136 0.4984799999999936  C 31.330422063360945 0.07572251956572273  30.27233769386446 0.3183522111916446  29.661600000000007 1.0836799999999869  L 0.529200000000003 38.55672  C 0.04550954231758908 39.18647255362761  -0.04262682484259983 40.03482762440126  0.30127999999999133 40.750559999999965  Z " fill-rule="nonzero" fill="#ffffff" stroke="none" fill-opacity="0.996078431372549" transform="matrix(1 0 0 1 127 204 )" />
  </g>
</svg>