<?xml version="1.0" encoding="utf-8"?>
<svg version="1.1" xmlns:xlink="http://www.w3.org/1999/xlink" width="170px" height="169px" xmlns="http://www.w3.org/2000/svg">
  <g transform="matrix(1 0 0 1 -65 -151 )">
    <path d="M 160.8222972972973 127.51922554347827  C 158.70878378378376 131.17017663043478  155.4695945945946 132.96120923913043  150.5418918918919 133.11046195652176  C 149.6689189189189 132.86936141304346  148.0837837837838 132.54789402173913  146.57905405405404 132.00828804347827  C 139.38851351351352 129.44802989130434  131.78445945945944 134.79816576086955  131.97972972972974 142.38709239130435  C 132.01418918918918 143.74184782608694  132.35878378378376 145.14252717391304  132.8412162162162 146.42839673913045  C 134.92027027027024 152.04259510869568  133.025 157.43865489130434  127.78716216216213 160.4007472826087  C 121.73483848259366 163.81647343836474  115.28961135643698 166.48431208462438  108.59324324324324 168.34558423913046  C 102.89594594594594 169.9529211956522  97.64662162162162 167.4271059782609  95.19999999999999 161.91623641304346  C 92.47770270270269 155.8083559782609  85.44797297297295 153.40883152173913  79.7277027027027 156.68091032608697  C 77.60329101657068 157.9316532053232  75.95173811582288 159.84879607803478  75.02972972972972 162.134375  C 73.05405405405405 166.65788043478264  68.73513513513514 169.35591032608693  63.95675675675676 168.7474184782609  C 61.63648648648649 168.46039402173912  59.37364864864864 167.64524456521738  57.133783783783784 166.91046195652177  C 52.11075693917787 165.23121194234628  47.26040585144477 163.07439821488137  42.64932432432432 160.4696331521739  C 37.29662162162161 157.4616168478261  35.401351351351344 152.10000000000002  37.56081081081081 146.34802989130435  C 39.226351351351354 141.9163722826087  38.46824324324324 137.85210597826088  35.1027027027027 134.5226222826087  C 31.794594594594596 131.26202445652171  27.77432432432432 130.55020380434783  23.44391891891892 132.16902173913044  C 17.585810810810813 134.32744565217394  12.279054054054054 132.4560461956522  9.235135135135137 127.03702445652176  C 5.876318730535341 121.04296945428167  3.2390573435685024 114.67264405828308  1.3783783783783767 108.05896739130434  C -0.3604948275171199 102.64992704058405  2.369951541612534 96.81608370331503  7.638513513513513 94.6836277173913  C 11.061486486486487 93.17961956521738  13.335810810810809 90.6882472826087  14.174324324324326 87.02581521739133  C 15.427464504137923 81.87810705608844  12.727442059202982 76.58801518987126  7.822297297297293 74.58043478260872  C 4.525675675675673 73.13383152173915  2.2743243243243207 70.80319293478263  1.2749999999999977 67.32445652173914  C 0.7314908181672704 65.43835173999375  0.7275116189584412 63.43777435438649  1.2635135135135103 61.54952445652176  C 3.127777413444489 54.74051768419564  5.820395349971581 48.185710487739954  9.28108108108108 42.03186141304349  C 12.24459459459459 36.750611413043494  17.666216216216213 34.81032608695653  23.340540540540538 36.980230978260884  C 30.02567567567567 39.5404891304348  36.974999999999994 35.69436141304349  38.22702702702703 28.67948369565219  C 38.558891385240926 26.703895716957312  38.328025254345576 24.674839425041174  37.56081081081081 22.82418478260871  C 35.34391891891892 17.106657608695663  37.285135135135135 11.722078804347834  42.64932432432432 8.702581521739141  C 48.74033142532511 5.2833109595138215  55.22399168798065 2.615529070965324  61.958108108108085 0.757744565217389  C 67.29023586230596 -0.7962499488840813  72.93579667946413 1.9236153691782405  75.04121621621621 7.060801630434781  C 76.68378378378378 10.76915760869565  79.40608108108108 13.13423913043478  83.43783783783783 13.76569293478261  C 88.58378378378379 14.569361413043477  93.08648648648648 12.043546195652175  95.18851351351351 7.2444972826086955  C 96.73918918918918 3.731317934782607  99.25472972972972 1.331793478260869  103.03378378378378 0.642934782608695  C 104.74527027027027 0.3329483695652164  106.675 0.3788722826086953  108.3635135135135 0.8151494565217369  C 115.15438342878485 2.6076730302330775  121.68074701094707 5.282584932570379  127.77567567567566 8.771467391304345  C 133.01351351351352 11.722078804347825  134.9547297297297 17.141100543478263  132.80675675675676 22.73233695652174  C 130.08445945945945 29.804619565217394  134.40337837837836 36.99171195652174  141.9385135135135 37.71501358695652  C 143.52364864864865 37.86426630434782  145.2581081081081 37.554279891304354  146.7743243243243 37.014673913043474  C 152.87364864864867 34.84476902173913  158.06554054054052 36.681725543478265  161.22432432432433 42.330366847826085  C 164.48648648648648 48.18566576086957  167.02499999999998 54.33947010869566  168.8743243243243 60.791779891304344  C 170.59729729729727 66.81929347826087  168.2081081081081 72.00869565217391  162.4878378378378 74.58043478260872  C 155.54999999999998 77.69177989130435  153.60878378378376 86.3484375  158.68581081081078 91.83634510869567  C 159.75405405405402 92.98444293478262  161.17837837837837 93.93736413043479  162.60270270270266 94.60326086956522  C 168.13918918918915 97.18648097826086  170.57432432432432 102.35292119565219  168.89729729729729 108.265625  C 167.0116603446281 114.9922491825141  164.2993261957276 121.45939447581019  160.8222972972973 127.51922554347827  Z M 145.05135135135137 84.37370923913042  C 145.13175675675674 74.94782608695652  150.0364864864865 68.44959239130434  158.54797297297296 64.33940217391304  C 156.93986486486486 58.438179347826086  154.60810810810813 52.858423913043474  151.65608108108108 47.50828804347825  C 151.2885135135135 46.83091032608695  150.88648648648646 47.163858695652166  150.43851351351353 47.31311141304347  C 146.34932432432433 48.78267663043478  142.16824324324324 49.115624999999994  137.91824324324327 48.10529891304348  C 128.07467479843206 45.84391391205423  121.09848364158218 37.086603148358016  121.09848364158218 26.991218393936652  C 121.09848364158218 24.424736776483  121.55472899013076 21.878671163834845  122.44594594594594 19.471739130434784  C 122.75608108108108 18.599184782608692  122.59527027027026 18.20883152173913  121.7912162162162 17.841440217391305  C 118.54054054054053 16.383355978260873  115.3472972972973 14.776019021739133  112.06216216216217 13.40978260869565  C 109.90270270270271 12.502785326086954  107.6168918918919 11.894293478260867  105.45743243243244 11.170991847826086  C 101.27635135135135 19.804687499999996  94.6945945945946 24.73002717391304  85.17229729729732 24.73002717391304  C 75.60405405405407 24.73002717391304  69.01081081081084 19.781725543478256  64.88716216216217 11.239877717391298  C 58.8461761753662 12.891471045109016  53.03789211395529 15.29853498237541  47.600000000000016 18.40400815217391  C 50.71283783783785 27.37065217391304  49.57567567567569 35.5336277173913  42.798648648648665 42.284442934782604  C 36.033108108108124 49.02377717391303  27.866216216216234 50.194836956521726  18.941216216216233 47.04904891304348  C 15.828378378378396 52.55991847826086  13.416216216216235 58.30040760869565  11.785135135135151 64.33940217391304  C 20.28513513513515 68.43811141304349  25.21283783783786 74.95930706521739  25.27027027027029 84.44259510869564  C 25.327702702702723 94.06365489130432  20.388513513513534 100.6881793478261  11.773648648648667 104.85577445652173  C 13.439189189189207 110.92921195652174  15.839864864864882 116.70414402173914  18.952702702702723 122.14612771739132  C 27.60202702702705 119.10366847826086  35.5506756756757 120.07955163043479  42.23581081081084 126.35964673913045  C 49.47229729729732 133.1334239130435  50.793243243243275 141.49157608695654  47.600000000000016 150.7796875  C 53.09054054054055 153.89103260869567  58.84527027027029 156.31351902173913  64.89864864864867 157.93233695652174  C 69.06824324324326 149.35604619565217  75.65000000000002 144.4421875  85.17229729729732 144.45366847826088  C 94.75202702702704 144.45366847826088  101.32229729729734 149.43641304347824  105.43445945945945 157.94381793478257  C 111.47268914815389 156.28419089314656  117.27998981859386 153.87753449189555  122.72162162162164 150.7796875  C 119.58581081081083 141.81304347826085  120.76891891891893 133.6845108695652  127.47702702702705 126.94517663043476  C 134.2310810810811 120.17139945652171  142.39797297297298 119.02330163043479  151.38040540540538 122.13464673913043  C 154.48538010760063 116.69572429943737  156.8898115699458 110.8861940685115  158.5364864864865 104.84429347826085  C 149.88716216216218 100.65373641304346  144.95945945945945 93.99476902173912  145.05135135135137 84.37370923913042  Z " fill-rule="nonzero" fill="#ffffff" stroke="none" fill-opacity="0.996078431372549" transform="matrix(1 0 0 1 65 151 )" />
  </g>
</svg>