<?xml version="1.0" encoding="utf-8"?>
<svg version="1.1" xmlns:xlink="http://www.w3.org/1999/xlink" width="80px" height="24px" xmlns="http://www.w3.org/2000/svg">
  <g transform="matrix(1 0 0 1 -1103 -8 )">
    <path d="M 1104 12  A 3 3 0 0 1 1107 9 L 1179 9  A 3 3 0 0 1 1182 12 L 1182 28  A 3 3 0 0 1 1179 31 L 1107 31  A 3 3 0 0 1 1104 28 L 1104 12  Z " fill-rule="nonzero" fill="#ffffff" stroke="none" fill-opacity="0.19607843137254902" />
    <path d="M 1103.5 12  A 3.5 3.5 0 0 1 1107 8.5 L 1179 8.5  A 3.5 3.5 0 0 1 1182.5 12 L 1182.5 28  A 3.5 3.5 0 0 1 1179 31.5 L 1107 31.5  A 3.5 3.5 0 0 1 1103.5 28 L 1103.5 12  Z " stroke-width="1" stroke="#ffffff" fill="none" stroke-opacity="0.5137254901960784" />
  </g>
</svg>