<?xml version="1.0" encoding="utf-8"?>
<svg version="1.1" xmlns:xlink="http://www.w3.org/1999/xlink" width="180px" height="30px" xmlns="http://www.w3.org/2000/svg">
  <g transform="matrix(1 0 0 1 -647 -434 )">
    <path d="M 648 449  A 14 14 0 0 1 662 435 L 812 435  A 14 14 0 0 1 826 449 A 14 14 0 0 1 812 463 L 662 463  A 14 14 0 0 1 648 449 Z " fill-rule="nonzero" fill="#ffffff" stroke="none" fill-opacity="0" />
    <path d="M 647.5 449  A 14.5 14.5 0 0 1 662 434.5 L 812 434.5  A 14.5 14.5 0 0 1 826.5 449 A 14.5 14.5 0 0 1 812 463.5 L 662 463.5  A 14.5 14.5 0 0 1 647.5 449 Z " stroke-width="1" stroke="#ffffff" fill="none" stroke-opacity="0.39215686274509803" />
  </g>
</svg>