<?xml version="1.0" encoding="utf-8"?>
<svg version="1.1" xmlns:xlink="http://www.w3.org/1999/xlink" width="16px" height="20px" xmlns="http://www.w3.org/2000/svg">
  <g transform="matrix(1 0 0 1 -53 -494 )">
    <path d="M 15.972024941406247 17.37256138671875  C 15.9720249609375 18.803091503906252  14.8713712109375 19.9650237109375  13.518668339843751 20  L 2.48123171875 20  C 1.1276094726562498 19.9650237109375  0.027955039062500298 18.80309150390625  0.027955039062500298 17.37256140625  L 0.027955039062500298 9.6010105078125  C 0.027955039062500298 8.1723991015625  1.1276294531250004 7.010486875  2.48123171875 7.010486875  L 3.1177001953124996 7.010486875  C 3.0525043945312493 6.68740591796875  3.0174481640625004 6.354611562499999  3.0174481640625004 6.013982499999999  L 3.0174481640625004 5.0174781249999985  C 3.0174481640625004 2.265424023437499  5.2479158984375 0.03497626953124888  8.00000998046875 0.03497626953124888  C 10.751064765625 0.03497626953124888  12.9825118359375 2.265424023437499  12.9825118359375 5.0174781249999985  L 12.9825118359375 6.013982499999999  C 12.9825118359375 6.3545915625  12.947435625 6.68740591796875  12.882259804687498 7.010486875  L 13.518668320312498 7.010486875  C 14.871371191406247 7.010486875  15.972024941406247 8.1723991015625  15.972024941406247 9.6010105078125  L 15.972024941406247 17.37256138671875  Z M 5.986535117187499 11.99300873046875  C 5.98653513671875 12.732587304687499  6.39915537109375 13.37097447265625  7.00346564453125 13.7135222265625  L 7.00346564453125 15.9790262109375  C 7.00346564453125 16.5278541015625  7.450162792968751 16.9755105859375  8.00000998046875 16.9755105859375  C 8.549797226562498 16.9755105859375  8.996494355468748 16.527854101562497  8.996494355468748 15.9790262109375  L 8.996494375000001 13.7135222265625  C 9.6007646875 13.37097447265625  10.0124055859375 12.732587304687499  10.0124055859375 11.99300873046875  C 10.0124055859375 10.891395625  9.111276542968751 10  8.00000998046875 10  C 6.887664160156248 10  5.986535117187499 10.891395625  5.986535117187499 11.99300873046875  Z M 10.989503124999999 7.010486875  L 10.989503124999999 5.01747814453125  C 10.989503124999999 3.3660578124999994  9.65143033203125 2.0279650390625  8.00001 2.0279650390625  C 6.3485496875 2.0279650390625  5.0104569140625 3.36603783203125  5.0104569140625 5.01747814453125  L 5.0104569140625 7.010486875  L 10.989503124999999 7.010486875  Z " fill-rule="nonzero" fill="#2799ce" stroke="none" transform="matrix(1 0 0 1 53 494 )" />
  </g>
</svg>