<?xml version="1.0" encoding="utf-8"?>
<svg version="1.1" xmlns:xlink="http://www.w3.org/1999/xlink" width="14px" height="16px" xmlns="http://www.w3.org/2000/svg">
  <g transform="matrix(1 0 0 1 -16 -240 )">
    <path d="M 8.542052469135802 11.008791208791205  L 5.2699845679012345 7.707692307692308  L 8.555555555555557 4.144505494505495  C 8.64952095548701 4.042645771445649  8.701821312754735 3.9082028459193925  8.701821312754735 3.7685157818251547  C 8.701821312754735 3.60620542126885  8.63127606852064 3.4522001240173767  8.509104938271605 3.347802197802199  L 4.791975308641977 0.17307692307692418  C 4.694636194818028 0.0900833967205726  4.571682388221936 0.04459860308788851  4.444674656136179 0.04459860308788851  C 4.146531910284081 0.04459860308788851  3.9046585075689473 0.29011609799778376  3.904012345679013 0.5934065934065934  L 3.904012345679013 6.32912087912088  L 0.9797839506172844 3.3780219780219776  C 0.8786404555403555 3.2760013856631343  0.7419724337704938 3.2187593461996875  0.5995370370370371 3.2187593461996875  C 0.3012774507105131 3.2187593461996875  0.05949028322407566 3.464721802292642  0.05949028322407566 3.7681318681318685  C 0.05949028322407566 3.914642478127643  0.11701888141721731 4.055083639311658  0.21929012345679028 4.158241758241758  L 3.763580246913581 7.735164835164835  L 0.20578703703703746 11.593406593406597  C 0.11980067495717237 11.693604168366587  0.07242025291062157 11.822104944639877  0.07242025291062157 11.955111587770704  C 0.07242025291062157 12.258868200177641  0.31448358299824763 12.505111587770703  0.6130838331575356 12.505111587770703  C 0.7557122128069257 12.505111587770703  0.8925628760464446 12.447779880365225  0.9938271604938275 12.345604395604395  L 3.904012345679013 9.189010989010988  L 3.904012345679013 15.385714285714283  C 3.904606675310012 15.688916661329124  4.146080380761339 15.934560242384787  4.444135802469136 15.935164835164834  C 4.592464140310311 15.935338561771392  4.73430830876645 15.873328090420687  4.836265432098765 15.763736263736261  L 8.553395061728395 11.776923076923074  C 8.755434050290447 11.560285433944772  8.750396801550833 11.219157843138817  8.542052469135802 11.008791208791205  Z M 4.984259259259259 6.411538461538462  L 4.984259259259259 1.7725274725274733  L 7.377006172839506 3.815934065934066  L 4.984259259259259 6.411538461538462  Z M 7.406172839506171 11.41098901098901  L 4.984259259259259 14.008241758241759  L 4.984259259259259 8.967032967032965  L 7.406172839506171 11.41098901098901  Z M 10.940200617283951 7.390659340659341  C 10.941832694892915 6.473174452953531  10.674620515422927 5.576013037152173  10.172685185185182 4.8137362637362635  C 10.072361354675408 4.661476375053769  9.904030121204176 4.570107187900716  9.72384259259259 4.570107187900716  C 9.425419856547075 4.570107187900716  9.183500430081413 4.816204186879913  9.183500430081413 5.119780219780219  C 9.183500430081413 5.228766647478106  9.21534920703741 5.33529311206638  9.275 5.425824175824177  C 9.657764718627382 6.007000347076553  9.861430495849628 6.6911052231138095  9.859953703703704 7.39065934065934  C 9.861613980719536 8.089988868354  9.658130973360807 8.773920210753298  9.27554012345679 9.354945054945055  C 9.215832235321349 9.445453724552552  9.18394900724889 9.55198883030012  9.18394900724889 9.660989010989013  C 9.18394900724889 9.964313023435611  9.425667598875794 10.210205719470517  9.72384259259259 10.210205719470517  C 9.903774025598274 10.210205719470517  10.071880581927754 10.11901966358231  10.17214506172839 9.967032967032965  C 10.674438036445597 9.205103305857774  10.941860556897208 8.308058393147611  10.940200617283951 7.390659340659341  Z M 13.978935185185184 7.475274725274726  C 13.978935185185184 6.464285714285715  13.786651234567898 5.48021978021978  13.408024691358024 4.55  C 13.220021296501196 4.08689143704799  12.98735067090621 3.64388273948991  12.713425925925925 3.227472527472528  C 12.613147940908913 3.0751454789455797  12.444800192116885 2.983721639019742  12.264583333333333 2.983721639019742  C 11.966243615029232 2.983721639019742  11.724391487740087 3.2297501766702394  11.724391487740087 3.5332417582417586  C 11.724391487740087 3.6421201181426603  11.756186021749322 3.7485445265239785  11.81574074074074 3.839010989010989  C 12.523558270293245 4.914660664352898  12.900553258710442 6.180323151193154  12.89868827160494 7.474725274725275  C 12.899673172226388 8.768995249820893  12.522754097103268 10.034402877547592  11.81574074074074 11.110439560439563  C 11.762508402135817 11.197582451818253  11.734298102693346 11.298134813691108  11.734298102693346 11.400732459652563  C 11.734298102693346 11.7044890720595  11.976361432780973 11.950732459652565  12.274961682940258 11.950732459652565  C 12.448667100396678 11.950732459652565  12.611794040386235 11.865830710340955  12.713425925925925 11.722527472527474  C 13.54061039074232 10.466076628652118  13.981175416556141 8.987469496748158  13.978935185185184 7.475274725274726  Z " fill-rule="nonzero" fill="#2799ce" stroke="none" transform="matrix(1 0 0 1 16 240 )" />
  </g>
</svg>