<?xml version="1.0" encoding="utf-8"?>
<svg version="1.1" xmlns:xlink="http://www.w3.org/1999/xlink" width="24px" height="24px" xmlns="http://www.w3.org/2000/svg">
  <g transform="matrix(1 0 0 1 -50 -113 )">
    <path d="M 62 114  C 68.16 114  73 118.84  73 125  C 73 131.16  68.16 136  62 136  C 55.84 136  51 131.16  51 125  C 51 118.84  55.84 114  62 114  Z " fill-rule="nonzero" fill="#ffffff" stroke="none" />
    <path d="M 62 114  C 68.16 114  73 118.84  73 125  C 73 131.16  68.16 136  62 136  C 55.84 136  51 131.16  51 125  C 51 118.84  55.84 114  62 114  Z " stroke-width="2" stroke="#478bf8" fill="none" />
  </g>
</svg>