<?xml version="1.0" encoding="utf-8"?>
<svg version="1.1" xmlns:xlink="http://www.w3.org/1999/xlink" width="24px" height="24px" xmlns="http://www.w3.org/2000/svg">
  <g transform="matrix(1 0 0 1 -286 -284 )">
    <path d="M 0.06465517241379286 13  L 0.06465517241379286 11  L 23.962284482758623 11  L 23.962284482758623 13  L 0.06465517241379286 13  Z M 2.173275862068966 21.786179956896547  L 2.173275862068966 21.7770474137931  L 2.173275862068966 16.731330818965517  L 0.06465517241379286 16.731330818965517  L 0.06465517241379286 23.234294181034482  C 0.06465517241379286 23.625942887931032  0.3749999999999998 23.944719827586205  0.767510775862069 23.944719827586205  L 7.796228448275861 23.944719827586205  L 7.796228448275861 21.786179956896547  L 2.173275862068966 21.786179956896547  Z M 21.853663793103443 21.7770474137931  L 21.853663793103443 16.731330818965517  L 23.96228448275862 16.731330818965517  L 23.96228448275862 23.234294181034482  C 23.96228448275862 23.625942887931032  23.651939655172413 23.944719827586205  23.259428879310345 23.944719827586205  L 16.23068426724138 23.944719827586205  L 16.23068426724138 21.786179956896547  L 21.85363685344828 21.786179956896547  L 21.85363685344828 21.7770474137931  Z M 2.173275862068966 2.2407596982758626  L 2.173275862068966 2.2498922413793103  L 2.173275862068966 7.295608836206895  L 0.06465517241379286 7.295608836206895  L 0.06465517241379286 0.7926454741379314  C 0.06465517241379286 0.40099676724137956  0.3749999999999998 0.08221982758620709  0.767510775862069 0.08221982758620709  L 7.796228448275861 0.08221982758620709  L 7.796228448275861 2.2407596982758626  L 2.173275862068966 2.2407596982758626  Z M 21.853663793103443 2.2498922413793103  L 21.853663793103443 7.295608836206895  L 23.96228448275862 7.295608836206895  L 23.96228448275862 0.7926454741379314  C 23.96228448275862 0.40099676724137956  23.651939655172413 0.08221982758620709  23.259428879310345 0.08221982758620709  L 16.23068426724138 0.08221982758620709  L 16.23068426724138 2.2407596982758626  L 21.85363685344828 2.2407596982758626  L 21.85363685344828 2.249892241379311  Z " fill-rule="nonzero" fill="#478bf8" stroke="none" transform="matrix(1 0 0 1 286 284 )" />
  </g>
</svg>