<?xml version="1.0" encoding="utf-8"?>
<svg version="1.1" xmlns:xlink="http://www.w3.org/1999/xlink" width="120px" height="120px" xmlns="http://www.w3.org/2000/svg">
  <g transform="matrix(1 0 0 1 -128 -57 )">
    <path d="M 0.18153503667091478 60.14806700414542  C 0.07262623565051012 27.048357302295916  26.615781409438778 0.5425249123086733  59.927801977040815 0.48623497289540824  C 93.20617107780612 0.4305569196428572  119.82213592155614 26.88009937021684  119.8190767299107 60.00367107780612  C 119.81601753826531 93.12785467155612  93.19515784438774 119.57556158322706  59.91984793526785 119.51315314094388  C 26.718571588010203 119.45135658482143  0.2904438376913252 93.18842745535714  0.18153503667091478 60.14806700414542  Z M 57.91849589445153 111.75493072385204  C 85.88909048150511 113.01044112723214  110.75272504783163 91.36695846619898  112.03332122927297 61.932213448660704  C 113.09426426977042 34.89896878985969  92.28350558035714 9.600922672193876  62.083339764030605 8.245069276147957  C 34.09561344068877 6.988946986607142  9.201386479591838 28.647725964604593  7.9807513153699 58.06901020408163  C 6.85923537149235 85.10653782684949  27.726284119897958 110.39968909438774  57.91849589445153 111.75493072385204  Z " fill-rule="nonzero" fill="#4bd863" stroke="none" transform="matrix(1 0 0 1 128 57 )" />
  </g>
</svg>