<?xml version="1.0" encoding="utf-8"?>
<svg version="1.1" xmlns:xlink="http://www.w3.org/1999/xlink" width="18px" height="15px" xmlns="http://www.w3.org/2000/svg">
  <g transform="matrix(1 0 0 1 -246 -11 )">
    <path d="M 9.001041660156249 0.9166666601562503  C 11.978333320312498 0.9166666601562503  14.8052083203125 1.9287500000000004  17.09833333984375 3.76  C 17.25030126827705 3.8784263371402656  17.33915763547008 4.0603217711524415  17.33915763547008 4.252984815353368  C 17.33915763547008 4.598162783997613  17.059335604114327 4.877984815353368  16.71415763547008 4.877984815353368  C 16.569858679302644 4.877984815353368  16.430004996359262 4.828053912451594  16.31833333984375 4.736666660156249  C 14.244374999999998 3.0806249999999995  11.691875 2.16666666015625  9.001041660156249 2.16666666015625  C 6.309374999999999 2.16666666015625  3.7560416601562494 3.0812500000000007  1.6816666601562487 4.7383333398437495  C 1.5699950808196705 4.829720336266868  1.4301415988247541 4.879651085941402  1.2858428644340298 4.879651085941402  C 0.9406648957897836 4.879651085941402  0.6608428644340298 4.599829054585649  0.6608428644340298 4.254651085941402  C 0.6608428644340298 4.061988264289962  0.7496990273530755 3.880093014600246  0.9016666601562489 3.761666660156249  C 3.1950000000000003 1.92958333984375  6.022708339843749 0.9166666601562503  9.001041660156249 0.9166666601562503  Z M 12.500416660156251 9.58291666015625  C 12.657600783550707 9.700984931769419  12.75008350005913 9.886120015550015  12.75008350005913 10.082708330078127  C 12.75008350005913 10.42793241453164  12.470224084453513 10.707791830137257  12.125 10.707791830137257  C 11.989593746336855 10.707791830137257  11.857848743793411 10.663823156841733  11.74958333984375 10.5825  C 10.957180808553826 9.986364962352543  9.992019108700202 9.664839436236868  9.000416660156251 9.66666666015625  C 7.99375 9.66666666015625  7.037916660156251 9.9914583203125  6.25041666015625 10.58291666015625  C 6.140734115401809 10.668171707014919  6.005773746818873 10.714454685917962  5.866854044693207 10.714454685917962  C 5.521676076048961 10.714454685917962  5.241854044693207 10.434632654562208  5.241854044693207 10.089454685917962  C 5.241854044693207 9.889347623575059  5.337671213264419 9.701339538931252  5.499583339843751 9.583750000000002  C 6.508648254256829 8.824535497077385  7.73763589206952 8.414824189588721  9.000416660156251 8.41666666015625  C 10.279791660156251 8.41666666015625  11.4983333203125 8.83041666015625  12.50041666015625 9.583125  Z M 9.000625000000003 4.66666666015625  C 11.194375 4.66666666015625  13.28270833984375 5.375833320312499  15.000416660156251 6.666041660156251  C 15.157550421609738 6.784096708406722  15.250000213103263 6.969189053801484  15.250000213103263 7.16572916015625  C 15.250000213103263 7.5109072464941775  14.970178086337928 7.790729373259512  14.625 7.790729373259512  C 14.489590383158838 7.790729373259512  14.357843291595383 7.746752674195575  14.24958333984375 7.665416660156251  C 12.74666666015625 6.536458339843749  10.921458339843749 5.91666666015625  9.000625000000003 5.91666666015625  C 7.079375000000001 5.91666666015625  5.253541660156251 6.536874999999998  3.7506250000000003 7.66625  C 3.641630805469404 7.749566911961004  3.5082507603645663 7.794706920026086  3.3710594987620466 7.794706920026086  C 3.0258815301178004 7.794706920026086  2.7460594987620466 7.5148848886703306  2.7460594987620466 7.169706920026085  C 2.7460594987620466 6.97143693389739  2.840135067410621 6.784927456445143  2.999583339843751 6.6670833398437495  C 4.717499999999999 5.37625  6.80604166015625 4.66666666015625  9.000625000000003 4.66666666015625  Z M 9 14.666666660156253  C 8.30964406271151 14.666666660156253  7.75 14.107022597444743  7.75 13.41666666015625  C 7.75 12.726310722867758  8.30964406271151 12.16666666015625  9 12.16666666015625  C 9.69035593728849 12.16666666015625  10.25 12.726310722867758  10.25 13.41666666015625  C 10.25 14.107022597444743  9.69035593728849 14.666666660156253  9 14.666666660156253  Z " fill-rule="nonzero" fill="#333333" stroke="none" fill-opacity="0.8980392156862745" transform="matrix(1 0 0 1 246 11 )" />
  </g>
</svg>