<?xml version="1.0" encoding="utf-8"?>
<svg version="1.1" xmlns:xlink="http://www.w3.org/1999/xlink" width="19px" height="16px" xmlns="http://www.w3.org/2000/svg">
  <g transform="matrix(1 0 0 1 -282 -56 )">
    <path d="M 9.50109953016493 0.9777777708333336  C 12.643796282552081 0.9777777708333336  15.627719893663194 2.0573333333333337  18.048240747612848 4.010666666666666  C 18.208651338736885 4.136988092949617  18.302444170773974 4.3310098892292705  18.302444170773974 4.536517136376926  C 18.302444170773974 4.904706969597454  18.00707647100957 5.203183803043592  17.64272194855175 5.203183803043592  C 17.490406383708347 5.203183803043592  17.342783051712555 5.1499241732817005  17.224907414279514 5.052444437499999  C 15.035729166666664 3.2859999999999996  12.34142361111111 2.3111111041666663  9.50109953016493 2.3111111041666663  C 6.659895833333333 2.3111111041666663  3.964710641276041 3.2866666666666675  1.7750925857204847 5.054222229166666  C 1.6572170297540967 5.151701692017992  1.509593909870574 5.204961158337496  1.3572785791248092 5.204961158337496  C 0.9929240566669938 5.204961158337496  0.6975563569025871 4.906484324891358  0.6975563569025871 4.538294491670829  C 0.6975563569025871 4.332787481909293  0.7913489733171353 4.138765882240262  0.9517592523871515 4.012444437499999  C 3.3725000000000005 2.0582222291666668  6.357303247612847 0.9777777708333336  9.50109953016493 0.9777777708333336  Z M 13.194884252387153 10.221777770833334  C 13.360800827081302 10.347717260554047  13.458421472284638 10.54519468325335  13.458421472284638 10.754888885416669  C 13.458421472284638 11.123127908833748  13.163014311367595 11.421644618813074  12.798611111111112 11.421644618813074  C 12.655682287800012 11.421644618813074  12.5166181184486 11.374744700631181  12.40233796983507 11.288  C 11.565913075695706 10.652122626509378  10.547131281405768 10.309162065319326  9.50043980794271 10.311111104166667  C 8.437847222222222 10.311111104166667  7.4289120301649305 10.657555541666666  6.597662030164931 11.2884444375  C 6.481886010701909 11.379383154149247  6.339427843864366 11.42875166497916  6.192790380509496 11.42875166497916  C 5.828435858051682 11.42875166497916  5.533068158287274 11.130274831533022  5.533068158287274 10.762084998312494  C 5.533068158287274 10.54863746514673  5.63420850289022 10.348095508193335  5.805115747612849 10.222666666666669  C 6.870239823937763 9.41283786354921  8.167504552740048 8.975812468894636  9.50043980794271 8.977777770833335  C 10.850891196831599 8.977777770833335  12.137129615885417 9.419111104166666  13.194884252387151 10.222000000000001  Z M 9.500659722222224 4.977777770833333  C 11.816284722222223 4.977777770833333  14.020636580946181 5.734222208333333  15.833773141276044 7.110444437500002  C 15.999636556143614 7.236369822300503  16.097222447164555 7.4338016573882495  16.097222447164555 7.6434444374999995  C 16.097222447164555 8.011634396260456  15.801854646690035 8.310111331476813  15.4375 8.310111331476813  C 15.29456762666766 8.310111331476813  15.15550125223957 8.26320285247528  15.041226858723958 8.1764444375  C 13.454814807942709 6.972222229166666  11.528206025390624 6.311111104166667  9.500659722222224 6.311111104166667  C 7.472673611111111 6.311111104166667  5.545405085720487 6.972666666666665  3.9589930555555557 8.177333333333333  C 3.843943627995482 8.266204706091738  3.70315358038482 8.314354048027825  3.5583405820266045 8.314354048027825  C 3.1939860595687892 8.314354048027825  2.8986183598043826 8.015877214581685  2.8986183598043826 7.647687381361157  C 2.8986183598043826 7.436199396157217  2.9979203489334334 7.237255953541486  3.166226858723959 7.1115555624999995  C 4.979583333333332 5.734666666666667  7.184155085720486 4.977777770833333  9.500659722222224 4.977777770833333  Z M 9.5 15.644444437500002  C 8.771290955084371 15.644444437500002  8.180555555555555 15.047490770607727  8.180555555555555 14.311111104166667  C 8.180555555555555 13.574731437725609  8.771290955084371 12.977777770833335  9.5 12.977777770833335  C 10.228709044915629 12.977777770833335  10.819444444444445 13.574731437725609  10.819444444444445 14.311111104166667  C 10.819444444444445 15.047490770607727  10.228709044915629 15.644444437500002  9.5 15.644444437500002  Z " fill-rule="nonzero" fill="#2799ce" stroke="none" transform="matrix(1 0 0 1 282 56 )" />
  </g>
</svg>