<?xml version="1.0" encoding="utf-8"?>
<svg version="1.1" xmlns:xlink="http://www.w3.org/1999/xlink" width="16px" height="16px" xmlns="http://www.w3.org/2000/svg">
  <g transform="matrix(1 0 0 1 -211 -57 )">
    <path d="M 9.762345679012345 11.008791208791205  L 6.02283950617284 7.707692307692308  L 9.777777777777779 4.144505494505495  C 9.885166806270869 4.042645771445649  9.944938643148268 3.9082028459193925  9.944938643148268 3.7685157818251547  C 9.944938643148268 3.60620542126885  9.86431550688073 3.4522001240173767  9.724691358024693 3.347802197802199  L 5.476543209876545 0.17307692307692418  C 5.365298508363461 0.0900833967205726  5.224779872253642 0.04459860308788851  5.0796281784413475 0.04459860308788851  C 4.738893611753236 0.04459860308788851  4.462466865793083 0.29011609799778376  4.461728395061729 0.5934065934065934  L 4.461728395061729 6.32912087912088  L 1.1197530864197536 3.3780219780219776  C 1.0041605206175492 3.2760013856631343  0.8479684957377072 3.2187593461996875  0.6851851851851852 3.2187593461996875  C 0.34431708652630066 3.2187593461996875  0.06798889511322932 3.464721802292642  0.06798889511322932 3.7681318681318685  C 0.06798889511322932 3.914642478127643  0.1337358644768198 4.055083639311658  0.25061728395061744 4.158241758241758  L 4.301234567901235 7.735164835164835  L 0.23518518518518566 11.593406593406597  C 0.13691505709391127 11.693604168366587  0.08276600332642466 11.822104944639877  0.08276600332642466 11.955111587770704  C 0.08276600332642466 12.258868200177641  0.3594098091408544 12.505111587770703  0.7006672378943264 12.505111587770703  C 0.8636711003507722 12.505111587770703  1.0200718583387938 12.447779880365225  1.1358024691358029 12.345604395604395  L 4.461728395061729 9.189010989010988  L 4.461728395061729 15.385714285714283  C 4.462407628925728 15.688916661329124  4.738377578012959 15.934560242384787  5.079012345679012 15.935164835164834  C 5.248530446068926 15.935338561771392  5.410638067161657 15.873328090420687  5.52716049382716 15.763736263736261  L 9.77530864197531 11.776923076923074  C 10.006210343189082 11.560285433944772  10.000453487486666 11.219157843138817  9.762345679012345 11.008791208791205  Z M 5.696296296296296 6.411538461538462  L 5.696296296296296 1.7725274725274733  L 8.430864197530864 3.815934065934066  L 5.696296296296296 6.411538461538462  Z M 8.464197530864196 11.41098901098901  L 5.696296296296296 14.008241758241759  L 5.696296296296296 8.967032967032965  L 8.464197530864196 11.41098901098901  Z M 12.503086419753087 7.390659340659341  C 12.504951651306188 6.473174452953531  12.199566303340488 5.576013037152173  11.625925925925923 4.8137362637362635  C 11.511270119629039 4.661476375053769  11.318891567090487 4.570107187900716  11.11296296296296 4.570107187900716  C 10.771908407482371 4.570107187900716  10.495429062950185 4.816204186879913  10.495429062950185 5.119780219780219  C 10.495429062950185 5.228766647478106  10.531827665185611 5.33529311206638  10.6 5.425824175824177  C 11.037445392717007 6.007000347076553  11.270206280971005 6.6911052231138095  11.268518518518519 7.39065934065934  C 11.270415977965184 8.089988868354  11.037863969555207 8.773920210753298  10.600617283950616 9.354945054945055  C 10.532379697510112 9.445453724552552  10.49594172257016 9.55198883030012  10.49594172257016 9.660989010989013  C 10.49594172257016 9.964313023435611  10.772191541572337 10.210205719470517  11.11296296296296 10.210205719470517  C 11.318598886398028 10.210205719470517  11.51072066506029 10.11901966358231  11.625308641975304 9.967032967032965  C 12.199357755937825 9.205103305857774  12.504983493596809 8.308058393147611  12.503086419753087 7.390659340659341  Z M 15.975925925925925 7.475274725274726  C 15.975925925925925 6.464285714285715  15.75617283950617 5.48021978021978  15.323456790123457 4.55  C 15.108595767429938 4.08689143704799  14.842686481035669 3.64388273948991  14.529629629629628 3.227472527472528  C 14.415026218181614 3.0751454789455797  14.222628790990726 2.983721639019742  14.016666666666666 2.983721639019742  C 13.675706988604835 2.983721639019742  13.399304557417242 3.2297501766702394  13.399304557417242 3.5332417582417586  C 13.399304557417242 3.6421201181426603  13.435641167713511 3.7485445265239785  13.503703703703703 3.839010989010989  C 14.31263802319228 4.914660664352898  14.74348943852622 6.180323151193154  14.74135802469136 7.474725274725275  C 14.742483625401587 8.768995249820893  14.31171896811802 10.034402877547592  13.503703703703703 11.110439560439563  C 13.442866745298076 11.197582451818253  13.41062640307811 11.298134813691108  13.41062640307811 11.400732459652563  C 13.41062640307811 11.7044890720595  13.68727020889254 11.950732459652565  14.02852763764601 11.950732459652565  C 14.22704811473906 11.950732459652565  14.413478903298554 11.865830710340955  14.529629629629628 11.722527472527474  C 15.474983303705507 10.466076628652118  15.978486190349876 8.987469496748158  15.975925925925925 7.475274725274726  Z " fill-rule="nonzero" fill="#2799ce" stroke="none" transform="matrix(1 0 0 1 211 57 )" />
  </g>
</svg>