<?xml version="1.0" encoding="utf-8"?>
<svg version="1.1" xmlns:xlink="http://www.w3.org/1999/xlink" width="23px" height="6px" xmlns="http://www.w3.org/2000/svg">
  <g transform="matrix(1 0 0 1 -338 -57 )">
    <path d="M 13.962895820224718 2.157206028334147  L 4.4549516629213475 2.157206028334147  C 3.915311599053813 2.157206028334147  3.4784600993494967 1.686496472887155  3.4784600993494967 1.1050317537860286  C 3.4784600993494967 0.5512558182706421  3.915311599053813 0.08054626282364305  4.4549516629213475 0.08054626282364305  L 13.962895820224718 0.08054626282364305  C 14.502535884092254 0.08054626282364305  14.913690249556474 0.5512558182706421  14.913690222353637 1.1050317537860286  C 14.913690222353637 1.6864964728871512  14.502535884092254 2.157206028334147  13.962895820224718 2.157206028334147  Z M 18.485593568302782 2.157206028334147  L 17.663284891780012 2.157206028334147  C 17.12364482791248 2.157206028334147  16.686793328208164 1.686496472887155  16.686793328208164 1.1050317537860286  C 16.686793328208164 0.5512558182706421  17.12364482791248 0.08054626282364305  17.663284891780012 0.08054626282364305  L 18.485593568302782 0.08054626282364305  C 19.025233632170313 0.08054626282364305  19.46208513187463 0.5512558182706421  19.46208513187463 1.1050317537860286  C 19.46208513187463 1.6864964728871512  19.025233632170313 2.157206028334147  18.485593568302782 2.157206028334147  Z M 21.87761689296274 5.83981597459697  L 0.9601397468953282 5.83981597459697  C 0.42049968302779406 5.83981597459697  0.009345317563571355 5.369106419149978  0.009345317563571355 4.787641700048852  C 0.009345317563571355 4.233865764533465  0.4204996558249554 3.763156209086466  0.9601397468953282 3.7631562383976553  L 21.87761689296274 3.7631562383976553  C 22.391559822590185 3.7631562383976553  22.8284113222945 4.23386579384465  22.8284113222945 4.787641700048852  C 22.8284113222945 5.369106419149975  22.391559822590185 5.83981597459697  21.87761689296274 5.83981597459697  Z " fill-rule="nonzero" fill="#478bf8" stroke="none" transform="matrix(1 0 0 1 338 57 )" />
  </g>
</svg>