<?xml version="1.0" encoding="utf-8"?>
<svg version="1.1" xmlns:xlink="http://www.w3.org/1999/xlink" width="3px" height="14px" xmlns="http://www.w3.org/2000/svg">
  <g transform="matrix(1 0 0 1 -308 -58 )">
    <path d="M 2.4915865384615383 8.93473252118644  L 2.4915865384615383 1.0677966101694916  C 2.4915865384615383 0.5047007415254238  2.0476262019230753 0.04819915254237288  1.5 0.04819915254237288  C 0.9523737980769248 0.04819915254237288  0.5084134615384616 0.5047007415254238  0.5084134615384616 1.0677966101694916  L 0.5084134615384616 8.93473252118644  C 0.5084134615384616 9.497851562500001  0.9523737980769231 9.954329978813558  1.5 9.954329978813558  C 2.0476262019230753 9.954329978813558  2.4915865384615383 9.497851562500001  2.4915865384615383 8.93473252118644  Z M 2.942307692307692 12.46875  C 2.942307692307692 11.649688824152541  2.2965594951923074 10.985699152542372  1.5 10.985699152542372  C 0.7034405048076926 10.985699152542372  0.057692307692307696 11.649688824152541  0.057692307692307696 12.46875  C 0.057692307692307696 13.287811175847459  0.7034405048076926 13.951800847457628  1.5 13.951800847457628  C 2.2965594951923074 13.951800847457628  2.942307692307692 13.287811175847459  2.942307692307692 12.46875  Z " fill-rule="nonzero" fill="#fe9400" stroke="none" transform="matrix(1 0 0 1 308 58 )" />
  </g>
</svg>