<?xml version="1.0" encoding="utf-8"?>
<svg version="1.1" xmlns:xlink="http://www.w3.org/1999/xlink" width="28px" height="25px" xmlns="http://www.w3.org/2000/svg">
  <g transform="matrix(1 0 0 1 -31 -47 )">
    <path d="M 23.17409274193548 11.609332230839424  C 25.85307459677419 11.085410013686136  27.871219758064512 8.67536781478103  27.871219758064516 5.861513458029197  C 27.871219758064516 2.6331546532846715  25.271270161290325 0.006771783759124087  22.075403225806454 0.006771783759124087  C 19.366431451612904 0.006771783759124087  16.98417338709677 1.9452839872262775  16.411189516129035 4.616574475364963  C 16.3882560483871 4.72385378649635  16.387903225806454 4.829707458941606  16.40060483870968 5  L 3.7000504032258066 5  C 2.875856854838709 4.932709854014599  2.183618951612904 5.529696053832116  2.054133064516129 6.351933166058394  L 0.10866935483870968 18.72148722627737  C 0.031912091119089284 19.208070548905866  0.1702957747661879 19.704177386832285  0.4872479838709678 20.078695255474457  C 0.8036160845323687 20.45363912676116  1.266881801097915 20.669517656056705  1.7545866935483871 20.669266081204384  L 9.892792338709677 20.669266081204384  L 9.892792338709677 23.085723654197086  L 6.655997983870966 23.085723654197086  C 6.136290322580645 23.085723654197086  5.7150201612903215 23.511276802007306  5.7150201612903215 24.036268248175183  C 5.7150201612903215 24.561259694343065  6.136290322580644 24.986812842153284  6.655997983870966 25  L 17.745211693548388 25  C 18.26491935483871 24.986812842153284  18.68618951612903 24.561259694343065  18.68618951612903 24.036268248175183  C 18.68618951612903 23.5112768020073  18.264919354838703 23.085723654197086  17.745211693548388 23.085723654197086  L 14.508417338709679 23.085723654197086  L 14.508417338709679 20.669266081204384  L 22.64662298387097 20.669266081204384  C 23.134245851415468 20.669490910587715  23.597456340894176 20.453768383948105  23.913961693548384 20.079051665145993  C 24.230955653003175 19.704407112926056  24.369452208800965 19.20822766343308  24.292893145161287 18.72148722627738  L 23.17409274193548 11.609332230839424  Z M 14.706350806451614 18.768176893248175  L 9.694153225806451 18.768176893248175  L 9.836693548387096 15.919750798357665  L 14.563810483870968 15.919750798357665  L 14.706350806451614 18.768176893248175  Z M 14.468548387096774 14.018305200729927  L 9.931602822580645 14.018305200729927  L 10.053326612903227 11.584027144160586  L 14.346824596774193 11.584027144160586  L 14.468548387096774 14.018305200729927  Z M 8.16890120967742 11.584027144160586  L 8.047177419354838 14.018305200729927  L 2.754133064516129 14.018305200729927  L 3.136945564516129 11.584027144160586  L 8.16890120967742 11.584027144160586  Z M 14.251915322580649 9.682937956204379  L 10.14858870967742 9.682937956204379  L 10.291129032258064 6.834511861313869  L 14.109375 6.834511861313869  L 14.251915322580649 9.682937956204379  Z M 16.35297379032258 14.018305200729927  L 16.23125 11.584027144160586  L 21.263558467741934 11.584027144160586  L 21.646370967741934 14.018305200729927  L 16.35297379032258 14.018305200729927  Z M 20.964717741935488 9.682937956204379  L 16.136340725806452 9.682937956204379  L 15.993800403225805 6.834511861313869  L 20.51663306451613 6.834511861313869  L 20.964717741935488 9.682937956204379  Z M 3.436139112903226 9.682937956204379  L 3.884223790322581 6.834511861313869  L 8.40670362903226 6.834511861313869  L 8.264163306451614 9.682937956204379  L 3.436139112903226 9.682937956204379  Z M 2.0068548387096774 18.768176893248175  L 2.4549395161290333 15.919750798357665  L 7.951915322580646 15.919750798357665  L 7.809375000000001 18.768176893248175  L 2.0068548387096774 18.768176893248175  Z M 12.625756048387096 20.66926608120438  L 12.625756048387096 23.08572365419708  L 11.774395161290323 23.08572365419708  L 11.774395161290323 20.66926608120438  L 12.625756048387096 20.66926608120438  Z M 22.39364919354839 18.768176893248175  L 16.590776209677415 18.768176893248175  L 16.44823588709677 15.919750798357665  L 21.945564516129032 15.919750798357665  L 22.39364919354839 18.768176893248175  Z M 25.98926411290323 5.861513458029199  C 25.98926411290323 7.740505246350366  24.65594758064516 9.350407732664236  22.877016129032256 9.727845574817518  L 22.346018145161292 6.35228957572993  C 22.216532258064518 5.530052463503652  21.52429435483871 4.9330662636861335  20.700453629032257 4.9330662636861335  L 18.27303427419355 4.9330662636861335  C 18.6921875 3.1756101733576654  20.275655241935482 1.9082173813868626  22.075403225806454 1.9082173813868626  C 24.233618951612904 1.9082173813868626  25.98926411290323 3.6817119069343076  25.98926411290323 5.861513458029199  Z " fill-rule="nonzero" fill="#1da823" stroke="none" transform="matrix(1 0 0 1 31 47 )" />
  </g>
</svg>