<?xml version="1.0" encoding="utf-8"?>
<svg version="1.1" xmlns:xlink="http://www.w3.org/1999/xlink" width="17px" height="17px" xmlns="http://www.w3.org/2000/svg">
  <g transform="matrix(1 0 0 1 -46 -43 )">
    <path d="M 14.12061071908602 15.325046705163043  L 13.04418682795699 14.237283457880435  C 12.672526041666668 13.861221976902174  12.069157426075268 13.861221976902174  11.697853662634408 14.237283457880435  C 11.325835853494624 14.612984035326084  11.325835853494624 15.222550101902172  11.697853662634408 15.598250679347826  L 12.77392053091398 16.686013926630434  C 12.959572412634408 16.874044667119566  13.2034190188172 16.967879585597824  13.447265625 16.967879585597824  C 13.690755208333332 16.967879585597824  13.93460181451613 16.874044667119563  14.12061071908602 16.686013926630434  C 14.492628528225808 16.310313349184785  14.492628528225808 15.700747282608697  14.12061071908602 15.325046705163043  Z M 16.911101310483872 9.740425441576088  C 16.911101310483872 9.208814538043477  16.4848160282258 8.777895720108695  15.958921370967742 8.777895720108695  L 14.43728998655914 8.777895720108695  C 13.911395329301076 8.777895720108695  13.48511004704301 9.208814538043477  13.48511004704301 9.740425441576088  C 13.48511004704301 10.272036345108697  13.911395329301076 10.702955163043482  14.43728998655914 10.702955163043482  L 15.958921370967742 10.702955163043482  C 16.484816028225808 10.702955163043482  16.911101310483872 10.272036345108697  16.911101310483872 9.740425441576088  Z M 11.603956653225808 5.283266813858697  C 11.789608534946236 5.471297554347828  12.033455141129032 5.565132472826089  12.276944724462366 5.565132472826089  C 12.520434307795698 5.565132472826089  12.764280913978494 5.471297554347826  12.950289818548388 5.283266813858697  L 14.026356686827956 4.195503566576088  C 14.398374495967742 3.819802989130436  14.398374495967742 3.2102369225543494  14.026356686827956 2.8345363451086967  C 13.654695900537634 2.458474864130436  13.051327284946236 2.458474864130436  12.680023521505376 2.8345363451086967  L 11.603956653225808 3.9222995923913055  C 11.23193884408602 4.298000169836958  11.23193884408602 4.907566236413046  11.603956653225808 5.283266813858697  Z M 6.20291498655914 2.514054008152174  C 6.20291498655914 3.0456649116847827  6.629200268817204 3.4765837296195667  7.155094926075269 3.4765837296195654  C 7.680989583333334 3.4765837296195654  8.107274865591393 3.0456649116847827  8.107274865591393 2.514054008152174  L 8.107274865591393 0.975883152173913  C 8.107274865591393 0.4442722486413043  7.680989583333328 0.01335343070652174  7.155094926075269 0.01335343070652174  C 6.629200268817204 0.01335343070652174  6.20291498655914 0.4442722486413043  6.20291498655914 0.975883152173913  L 6.20291498655914 2.514054008152174  Z M 0.3238197244623682 4.290782099184782  L 1.399529569892473 5.378545346467391  C 1.585181451612906 5.5665760869565215  1.829028057795699 5.660411005434782  2.0728746639784945 5.660411005434782  C 2.31636424731183 5.660411005434782  2.5602108534946235 5.5665760869565215  2.7462197580645187 5.378545346467391  C 3.118237567204301 5.002844769021738  3.118237567204301 4.393278702445652  2.7462197580645187 4.017578125  L 1.670152889784949 2.929814877717391  C 1.2984921034946264 2.553753396739131  0.6951234879032284 2.553753396739131  0.3238197244623682 2.929814877717391  C -0.04819808467741676 3.3055154551630435  -0.04819808467741676 3.915081521739131  0.3238197244623682 4.290782099184782  Z " fill-rule="nonzero" fill="#1da823" stroke="none" transform="matrix(1 0 0 1 46 43 )" />
  </g>
</svg>