<?xml version="1.0" encoding="utf-8"?>
<svg version="1.1" xmlns:xlink="http://www.w3.org/1999/xlink" width="32px" height="29px" xmlns="http://www.w3.org/2000/svg">
  <g transform="matrix(1 0 0 1 -298 -47 )">
    <path d="M 30.855783842437756 14.721176930373153  L 30.834039390561134 14.721176930373153  L 22.549408071348946 14.721176930373153  L 21.418697257525086 9.260240039608087  L 27.072251415830554 9.260240039608087  C 27.681095711631368 9.260240039608087  28.15947338535861 8.773840789034814  28.15947338535861 8.154787213883678  C 28.15947338535861 7.53573363873254  27.681095711631368 7.049334388159265  27.072251415830554 7.049334418386489  L 20.962064035674477 7.049334418386489  L 19.896586518023042 1.897924284969771  C 19.679142118171683 0.8809077058578277  18.787620096618358 0.15130884511152726  17.765631482720178 0.15130884511152726  L 14.069076804162021 0.15130884511152726  C 13.025343738387216 0.15130884511152726  12.155566168710516 0.8809077058578271  11.93812176885916 1.920033354179695  L 10.91613315496098 7.049334418386492  L 5.00164569305091 7.049334418386492  C 4.392801397250094 7.049334418386492  3.9144237235228543 7.535733668959767  3.9144237532515795 8.15478721388368  C 3.9144237829803044 8.77384075880759  4.392801426978818 9.260240039608087  5.00164569305091 9.260240039608087  L 10.459499933110365 9.260240039608087  L 9.37227796358231 14.721176930373153  L 1.2398577183203272 14.721176930373153  C 0.6310134225195094 14.721176930373153  0.15263574879227063 15.207576180946424  0.1526357785209959 15.826629725870335  C 0.15263580824972153 16.445683270794248  0.631013452248235 16.932082551594746  1.2398577183203272 16.932082551594746  L 8.915644741731697 16.932082551594746  L 7.067367402452619 26.151559001459244  C 6.632478632478631 28.2740284062956  9.154833563730955 29.689007989368353  10.698688755109623 28.207701228893058  L 16.02607634336678 23.07840019491349  L 21.331719479747306 28.29613747550552  C 22.875574671125975 29.821662344173436  25.419674024526195 28.384573691890765  24.963040832404307 26.23999524807171  L 23.02778574507618 16.932082551594746  L 30.855783842437756 16.932082551594746  C 31.464628138238574 16.932082551594746  31.943005811965815 16.44568330102147  31.943005782237087 15.826629725870335  C 31.94300575250836 15.207576150719198  31.46462810850985 14.721176900145926  30.855783842437756 14.721176930373153  Z M 13.134065938312895 7.049334418386492  L 14.069076804162021 2.362214466333125  L 17.765631482720178 2.362214466333125  L 18.74413122259383 7.049334418386492  L 13.134065938312895 7.049334418386492  Z M 12.655688264585654 9.260240039608087  L 12.677432716462281 9.260240039608087  L 19.200764444444445 9.260240039608087  L 20.331475287997026 14.721176930373153  L 11.568466324786325 14.721176930373153  L 12.655688264585654 9.260240039608087  Z M 9.220066889632106 26.571631074629973  L 9.19832243775548 26.57163107462998  L 10.91613315496098 18.037535377319156  L 14.460476729840208 21.508657187825726  L 9.220066889632106 26.571631074629973  Z M 22.832085797101453 26.704285429435068  L 17.591675956893347 21.530766257035648  L 21.070786205871425 18.192298771106945  L 22.832085797101453 26.704285429435068  Z M 19.22250889632107 16.909973482384828  L 16.02607634336678 19.983132319157807  L 12.91662153846154 16.909973482384828  L 19.22250889632107 16.909973482384828  Z " fill-rule="nonzero" fill="#ff3b30" stroke="none" transform="matrix(1 0 0 1 298 47 )" />
  </g>
</svg>