<?xml version="1.0" encoding="utf-8"?>
<svg version="1.1" xmlns:xlink="http://www.w3.org/1999/xlink" width="18px" height="9px" xmlns="http://www.w3.org/2000/svg">
  <g transform="matrix(1 0 0 1 -167 -82 )">
    <path d="M 14.73046875 7.625558035714287  C 14.806189903846153 7.533482142857144  14.795372596153847 7.393973214285717  14.706129807692308 7.313058035714286  C 13.186298076923077 5.948660714285714  11.201322115384617 5.122767857142858  9.02704326923077 5.122767857142858  C 6.852764423076923 5.122767857142858  4.867788461538462 5.948660714285714  3.3452524038461533 7.315848214285714  C 3.2587139423076925 7.393973214285714  3.2478966346153837 7.533482142857142  3.3236177884615374 7.628348214285716  L 4.297175480769231 8.825334821428571  C 4.37560096153846 8.920200892857142  4.513521634615385 8.931361607142858  4.605468749999998 8.850446428571429  C 5.784555288461538 7.779017857142859  7.331430288461538 7.131696428571429  9.02704326923077 7.131696428571429  C 10.722656250000002 7.131696428571429  12.26953125 7.779017857142859  13.448617788461538 8.84765625  C 13.540564903846153 8.928571428571429  13.678485576923077 8.917410714285714  13.756911057692308 8.822544642857142  L 14.73046875 7.625558035714287  Z M 17.908052884615387 3.719308035714288  C 17.98377403846154 3.6244419642857166  17.97295673076923 3.4821428571428594  17.881009615384617 3.404017857142857  C 15.482271634615383 1.342075892857143  12.396634615384617 0.10044642857142858  9.02704326923077 0.10044642857142858  C 5.657451923076923 0.10044642857142858  2.571814903846154 1.342075892857143  0.17037259615384615 3.404017857142857  C 0.07842548076923077 3.482142857142857  0.06760817307692307 3.624441964285712  0.14332932692307693 3.719308035714286  L 1.1168870192307692 4.916294642857143  C 1.192608173076923 5.0111607142857135  1.3305288461538463 5.022321428571429  1.4197716346153846 4.944196428571429  C 3.483173076923077 3.1752232142857144  6.136117788461538 2.109375  9.02704326923077 2.109375  C 11.91796875 2.109375  14.570913461538462 3.1752232142857144  16.631610576923077 4.944196428571429  C 16.723557692307693 5.022321428571429  16.85877403846154 5.0111607142857135  16.934495192307697 4.916294642857143  L 17.908052884615387 3.719308035714288  Z " fill-rule="nonzero" fill="#000000" stroke="none" fill-opacity="0.19607843137254902" transform="matrix(1 0 0 1 167 82 )" />
  </g>
</svg>