<?xml version="1.0" encoding="utf-8"?>
<svg version="1.1" xmlns:xlink="http://www.w3.org/1999/xlink" width="24px" height="6px" xmlns="http://www.w3.org/2000/svg">
  <g transform="matrix(1 0 0 1 -164 -77 )">
    <path d="M 23.88387784090909 4.728379360465116  C 23.961115056818183 4.635719476744185  23.947798295454547 4.4967296511627906  23.85458096590909 4.420421511627907  C 20.621271306818183 1.7060319767441863  16.482421875 0.07630813953488372  11.973366477272727 0.07630813953488372  C 7.493607954545455 0.07630813953488372  3.381392045454544 1.6842296511627908  0.15607244318181843 4.365915697674419  C 0.06285511363636388 4.442223837209302  0.049538352272727515 4.581213662790696  0.12677556818181868 4.6765988372093  L 1.085582386363637 5.845748546511626  C 1.1601562500000004 5.9356831395348815  1.2933238636363642 5.949309593023254  1.3812144886363642 5.875726744186045  C 4.276278409090909 3.4747456395348837  7.9596946022727275 2.0385174418604652  11.973366477272727 2.0385174418604652  C 16.016335227272727 2.0385174418604652  19.72372159090909 3.496547965116279  22.626775568181817 5.92750726744186  C 22.717329545454547 6.003815406976745  22.85049715909091 5.9901889534883725  22.925071022727273 5.897529069767442  L 23.88387784090909 4.728379360465116  Z " fill-rule="nonzero" fill="#000000" stroke="none" fill-opacity="0.19607843137254902" transform="matrix(1 0 0 1 164 77 )" />
  </g>
</svg>