<?xml version="1.0" encoding="utf-8"?>
<svg version="1.1" xmlns:xlink="http://www.w3.org/1999/xlink" width="17px" height="20px" xmlns="http://www.w3.org/2000/svg">
  <g transform="matrix(1 0 0 1 -206 -76 )">
    <path d="M 10.372492283950617 13.760989010989007  L 6.399266975308643 9.634615384615385  L 10.38888888888889 5.180631868131869  C 10.502989731662797 5.053307214307061  10.566497308345035 4.88525355739924  10.566497308345035 4.710644727281443  C 10.566497308345035 4.507756776586063  10.480835226060776 4.315250155021721  10.332484567901236 4.184752747252748  L 5.818827160493829 0.21634615384615524  C 5.700629665136177 0.11260424590071574  5.551328614269494 0.05574825385986064  5.397104939593932 0.05574825385986064  C 5.035074462487813 0.05574825385986064  4.741371044905151 0.3626451224972297  4.740586419753087 0.7417582417582418  L 4.740586419753087 7.911401098901099  L 1.189737654320988 4.222527472527472  C 1.066920553156146 4.095001732078918  0.9009665267213138 4.0234491827496095  0.7280092592592593 4.0234491827496095  C 0.3658369044341945 4.0234491827496095  0.07223820105780615 4.330902252865803  0.07223820105780615 4.710164835164836  C 0.07223820105780615 4.893303097659554  0.14209435600662101 5.068854549139572  0.26628086419753105 5.197802197802197  L 4.570061728395062 9.668956043956044  L 0.24988425925925978 14.491758241758246  C 0.14547224816228072 14.617005210458235  0.08793887853432619 14.777631180799846  0.08793887853432619 14.94388948471338  C 0.08793887853432619 15.323585250222052  0.3818729222121578 15.631389484713377  0.7444589402627217 15.631389484713377  C 0.9176505441226954 15.631389484713377  1.0838263494849685 15.559724850456531  1.2067901234567906 15.432005494505495  L 4.740586419753087 11.486263736263735  L 4.740586419753087 19.232142857142854  C 4.741308105733586 19.611145826661406  5.034526176638769 19.918200302980985  5.396450617283951 19.918956043956044  C 5.576563598948234 19.91917320221424  5.748802946359261 19.84166011302586  5.872608024691357 19.704670329670325  L 10.386265432098766 14.721153846153843  C 10.6315984896384 14.450356792430965  10.625481830454582 14.02394730392352  10.372492283950617 13.760989010989007  Z M 6.052314814814815 8.014423076923077  L 6.052314814814815 2.2156593406593417  L 8.957793209876543 4.769917582417583  L 6.052314814814815 8.014423076923077  Z M 8.993209876543208 14.263736263736263  L 6.052314814814815 17.510302197802197  L 6.052314814814815 11.208791208791206  L 8.993209876543208 14.263736263736263  Z M 13.284529320987655 9.238324175824177  C 13.286511129512824 8.091468066191913  12.962039197299267 6.970016296440216  12.352546296296293 6.017170329670329  C 12.230724502105854 5.826845468817211  12.026322290033642 5.712633984875895  11.807523148148146 5.712633984875895  C 11.44515268295002 5.712633984875895  11.151393379384572 6.020255233599892  11.151393379384572 6.399725274725274  C 11.151393379384572 6.535958309347633  11.190066894259711 6.6691163900829755  11.2625 6.782280219780221  C 11.727285729761821 7.508750433845691  11.974594173531692 8.363881528892263  11.972800925925927 9.238324175824175  C 11.974816976588007 10.1124860854425  11.727730467652409 10.967400263441622  11.263155864197529 11.69368131868132  C 11.190653428604495 11.80681715569069  11.151938080230796 11.93998603787515  11.151938080230796 12.076236263736266  C 11.151938080230796 12.455391279294513  11.445453512920608 12.762757149338146  11.807523148148146 12.762757149338146  C 12.026011316797906 12.762757149338146  12.230140706626559 12.648774579477887  12.35189043209876 12.458791208791206  C 12.96181761568394 11.506379132322218  13.286544961946609 10.385072991434514  13.284529320987655 9.238324175824177  Z M 16.974421296296295 9.344093406593409  C 16.974421296296295 8.080357142857144  16.740933641975307 6.850274725274725  16.281172839506173 5.6875  C 16.05288300289431 5.108614296309987  15.770354386100397 4.5548534243623875  15.43773148148148 4.03434065934066  C 15.315965356817966 3.8439318486819745  15.111543090427645 3.7296520487746774  14.892708333333331 3.7296520487746774  C 14.530438675392638 3.7296520487746774  14.23676109225582 4.0371877208377995  14.23676109225582 4.416552197802198  C 14.23676109225582 4.552650147678325  14.275368740695605 4.685680658154973  14.347685185185185 4.798763736263736  C 15.207177899641797 6.143325830441122  15.664957528434108 7.725403938991442  15.66269290123457 9.343406593406593  C 15.663888851989185 10.961244062276116  15.206201403625396 12.54300359693449  14.347685185185185 13.888049450549453  C 14.283045916879207 13.996978064772815  14.248790553270492 14.122668517113885  14.248790553270492 14.250915574565703  C 14.248790553270492 14.630611340074376  14.542724596948323 14.938415574565706  14.905310614998886 14.938415574565706  C 15.116238621910252 14.938415574565706  15.314321334754712 14.832288387926194  15.43773148148148 14.653159340659343  C 16.442169760187102 13.082595785815148  16.977141577246744 11.234336870935199  16.974421296296295 9.344093406593409  Z " fill-rule="nonzero" fill="#0099cc" stroke="none" transform="matrix(1 0 0 1 206 76 )" />
  </g>
</svg>