<?xml version="1.0" encoding="utf-8"?>
<svg version="1.1" xmlns:xlink="http://www.w3.org/1999/xlink" width="24px" height="24px" xmlns="http://www.w3.org/2000/svg">
  <g transform="matrix(1 0 0 1 -125 -75 )">
    <path d="M 23.931818181818183 12  C 23.931818181818183 5.416193181818181  18.583806818181817 0.06818181818181818  12 0.06818181818181818  C 5.416193181818182 0.06818181818181818  0.06818181818181818 5.416193181818182  0.06818181818181818 12  C 0.06818181818181818 18.583806818181817  5.416193181818182 23.931818181818183  12 23.931818181818183  C 18.583806818181817 23.931818181818183  23.931818181818183 18.583806818181817  23.931818181818183 12  Z M 11.147727272727273 13.704545454545455  L 11.147727272727273 3.4772727272727275  L 12.852272727272727 3.4772727272727275  L 12.852272727272727 13.704545454545455  L 11.147727272727273 13.704545454545455  Z M 20.522727272727273 12  C 20.522727272727273 16.708806818181817  16.708806818181817 20.522727272727273  12 20.522727272727273  C 7.291193181818182 20.522727272727273  3.4772727272727275 16.708806818181817  3.4772727272727275 12  C 3.4772727272727275 8.505681818181818  5.5866477272727275 5.501420454545454  8.590909090909092 4.180397727272727  L 8.590909090909092 6.098011363636362  C 6.545454545454545 7.269886363636363  5.181818181818182 9.485795454545455  5.181818181818182 12  C 5.181818181818182 15.749999999999996  8.25 18.818181818181817  12 18.818181818181817  C 15.749999999999996 18.818181818181817  18.818181818181817 15.749999999999996  18.818181818181817 12  C 18.818181818181817 9.485795454545455  17.454545454545453 7.269886363636363  15.40909090909091 6.098011363636362  L 15.40909090909091 4.180397727272727  C 18.413352272727273 5.501420454545454  20.522727272727273 8.505681818181817  20.522727272727273 12  Z " fill-rule="nonzero" fill="#ff3b30" stroke="none" transform="matrix(1 0 0 1 125 75 )" />
  </g>
</svg>