<?xml version="1.0" encoding="utf-8"?>
<svg version="1.1" xmlns:xlink="http://www.w3.org/1999/xlink" width="24px" height="11px" xmlns="http://www.w3.org/2000/svg">
  <g transform="matrix(1 0 0 1 -425 -91 )">
    <path d="M 23.59724550898203 10.902617647058824  C 23.50194231870034 10.902706300671944  23.410528849944193 10.868591928402498  23.34323353293413 10.807823529411765  L 12.230299401197604 0.8004117647058817  C 12.036454560279909 0.6267201859175977  11.723186158282962 0.6267201859175977  11.52934131736527 0.8004117647058822  L 0.7031137724550895 10.549323529411765  C 0.6357456077904584 10.609987901220062  0.5443747685480915 10.64406879042869  0.44910179640718617 10.64406879042869  C 0.2507061023222883 10.64406879042869  0.08987461487504997 10.499241612761743  0.08987461487504997 10.320588235294116  C 0.08987461487504997 10.234795857929976  0.12772165569465044 10.152517312984767  0.19508982035928119 10.09185294117647  L 11.021317365269459 0.3429411764705881  C 11.495925054233675 -0.08299347051628359  12.263715664329194 -0.08299347051628495  12.738323353293412 0.3429411764705881  L 23.851257485029937 10.350352941176471  C 23.918921414533223 10.411007465034313  23.95696050297556 10.49343859151547  23.95696050297556 10.5794125532364  C 23.95696050297556 10.757914233115535  23.796265580250157 10.90261843558934  23.598038347286934 10.90261843558934  Z M 21.5302994011976 4.958411764705883  C 21.529903109877154 5.13701806103446  21.369002488715395 5.281618003559128  21.170658682634734 5.281617647058824  C 20.972233024012887 5.281617647058824  20.811377245508982 5.136768595533493  20.811377245508982 4.958088235294118  L 20.811377245508982 1.136558823529412  L 16.56754491017964 1.136558823529412  C 16.369119251557798 1.136558823529412  16.20826347305389 0.9917097720040802  16.20826347305389 0.8130294117647067  C 16.20826347305389 0.634349051525332  16.369119251557798 0.48950000000000027  16.56754491017964 0.48950000000000027  L 21.171017964071854 0.48950000000000027  C 21.369443622693694 0.48950000000000027  21.5302994011976 0.634349051525332  21.5302994011976 0.8130294117647067  L 21.5302994011976 4.958411764705883  Z " fill-rule="nonzero" fill="#323333" stroke="none" transform="matrix(1 0 0 1 425 91 )" />
  </g>
</svg>