<?xml version="1.0" encoding="utf-8"?>
<svg version="1.1" xmlns:xlink="http://www.w3.org/1999/xlink" width="9px" height="6px" xmlns="http://www.w3.org/2000/svg">
  <g transform="matrix(1 0 0 1 -432 -104 )">
    <path d="M 8.992617187499999 3.2079545454545464  L 0.13781250000000056 3.2079545454545464  L 0.13781250000000056 1.3847727272727275  C 0.1387809352776932 0.6514392207201929  0.7516013838677003 0.05718908875412736  1.5078515624999995 0.05624999999999923  L 7.621171874999999 0.05624999999999923  C 8.37716008384982 0.05755997414403941  8.989944878331652 0.6510137176111364  8.992265624999998 1.384090909090906  L 8.992265624999998 3.2079545454545464  Z M 0.8409374999999966 1.3847727272727275  L 0.8409374999999986 2.5261363636363607  L 8.289492187499999 2.5261363636363607  L 8.289492187499999 1.3847727272727275  C 8.287947622674347 1.0278310003240279  7.989621574557076 0.7390019026380501  7.621523437499997 0.738068181818181  L 1.5078515624999975 0.7380681818181771  C 1.1397659111307497 0.7386313144083129  0.841518230483574 1.0278411865510306  0.8409374999999966 1.3847727272727275  Z M 3.0012890625000024 5.297727272727272  C 2.9295703125000014 5.5898863636363645  2.680312500000002 5.798863636363637  2.260546875 5.919204545454545  L 2.060859375 5.26534090909091  C 2.2454296875 5.2124999999999995  2.3097656250000016 5.154204545454544  2.3178515625000005 5.137840909090911  C 2.322421875000002 5.102045454545453  2.254570312500002 4.983068181818184  2.1708984375000018 4.903977272727274  C 1.8520312500000022 4.594772727272726  1.7170312500000011 4.284545454545457  1.7637890625000006 3.9753409090909093  C 1.8274218750000006 3.556022727272725  2.2042968750000016 3.3473863636363657  2.2471875000000026 3.3252272727272754  L 2.580820312500001 3.925227272727276  L 2.413828125000003 3.6252272727272734  L 2.5853906250000027 3.922500000000002  C 2.5558593750000016 3.9395454545454567  2.4686718750000027 4.003977272727274  2.4591796875000016 4.076250000000002  C 2.4486328125000014 4.155340909090913  2.524570312500002 4.2825  2.662734375000002 4.416477272727275  C 2.7024609375000024 4.452613636363637  3.1127343750000027 4.844318181818182  3.0012890625000024 5.297727272727272  Z M 5.079726562500005 5.297727272727272  C 5.008007812500003 5.5898863636363645  4.758750000000003 5.798863636363637  4.338984375000001 5.919204545454545  L 4.139296875 5.26534090909091  C 4.323867187500002 5.2124999999999995  4.388203125000002 5.154204545454544  4.396289062500003 5.137840909090911  C 4.4008593750000005 5.102045454545453  4.333007812500002 4.983068181818184  4.249335937500002 4.903977272727274  C 3.9304687500000024 4.594772727272726  3.795468750000003 4.284545454545457  3.8422265625000005 3.9753409090909093  C 3.905859375000001 3.556022727272725  4.282734375000002 3.3473863636363657  4.325625000000002 3.3252272727272754  L 4.6592578125000035 3.925227272727276  L 4.4922656250000035 3.6252272727272734  L 4.663828125000003 3.922500000000002  C 4.634296875000002 3.9395454545454567  4.547109375000003 4.003977272727274  4.537617187500004 4.076250000000002  C 4.527070312500003 4.155340909090913  4.603007812500004 4.2825  4.741171875000003 4.416477272727275  C 4.780898437500005 4.452613636363637  5.191171875000003 4.844318181818182  5.079726562500005 5.297727272727272  Z M 7.1578125 5.297727272727272  C 7.086445312500002 5.5898863636363645  6.8375390625 5.798863636363637  6.417421874999999 5.919204545454545  L 6.217734375000001 5.26534090909091  C 6.402304687500001 5.2124999999999995  6.4669921875 5.154204545454544  6.474726562500001 5.137840909090911  C 6.479648437500002 5.102045454545453  6.4114453125 4.983068181818184  6.3277734375 4.903977272727274  C 6.009257812499998 4.594772727272726  5.873906249999999 4.284545454545457  5.920664062499998 3.9753409090909093  C 5.9842968749999965 3.556022727272725  6.361171875 3.3473863636363657  6.404062499999998 3.3252272727272754  L 6.7376953125 3.925227272727276  L 6.570703125 3.6252272727272734  L 6.742265624999999 3.922840909090911  C 6.712382812499998 3.9395454545454567  6.6255468749999995 4.003977272727274  6.616054687499998 4.076250000000002  C 6.605507812499999 4.155340909090913  6.681796874999998 4.2825  6.819257812500001 4.416477272727275  C 6.858984375 4.452613636363637  7.269257812499999 4.844318181818182  7.1578125 5.297727272727272  Z " fill-rule="nonzero" fill="#323333" stroke="none" transform="matrix(1 0 0 1 432 104 )" />
  </g>
</svg>