<?xml version="1.0" encoding="utf-8"?>
<svg version="1.1" xmlns:xlink="http://www.w3.org/1999/xlink" width="29px" height="29px" xmlns="http://www.w3.org/2000/svg">
  <g transform="matrix(1 0 0 1 -299 -140 )">
    <path d="M 14.05521472392638 17.927272727272726  C 14.05521472392638 17.4  14.233128834355828 17.048484848484847  14.588957055214724 16.696969696969695  C 14.94478527607362 16.345454545454544  15.300613496932513 16.169696969696968  15.834355828220858 16.169696969696968  L 17.791411042944787 16.169696969696968  C 18.325153374233132 16.169696969696968  18.858895705521476 16.52121212121212  19.21472392638037 16.872727272727268  C 19.748466257668714 17.575757575757578  20.638036809815958 17.575757575757578  21.171779141104302 17.224242424242423  C 21.88343558282209 16.696969696969695  21.88343558282209 15.818181818181817  21.527607361963195 15.29090909090909  C 20.638036809815958 14.060606060606057  19.214723926380376 13.357575757575756  17.791411042944787 13.357575757575756  L 15.834355828220858 13.357575757575757  C 13.19419691429436 13.387950386539847  11.061422170423766 15.494873315333217  11.030674846625768 18.103030303030305  L 11.030674846625768 26.363636363636363  L 8.006134969325155 26.363636363636363  C 7.47239263803681 26.363636363636363  7.116564417177916 26.187878787878788  6.760736196319018 25.836363636363636  C 6.404907975460123 25.484848484848484  6.226993865030676 24.957575757575757  6.226993865030676 24.430303030303026  L 6.226993865030676 13.181818181818182  C 6.226993865030676 12.654545454545454  5.87116564417178 12.12727272727273  5.337423312883437 11.951515151515155  L 16.190184049079754 3.163636363636365  L 26.687116564417177 11.248484848484848  C 27.39877300613497 11.775757575757577  28.28834355828221 11.600000000000001  28.644171779141104 11.072727272727274  C 29.177914110429448 10.369696969696971  29 9.490909090909094  28.466257668711656 9.139393939393939  L 17.07975460122699 0.3515151515151528  C 16.546012269938647 0  15.834355828220854 0  15.300613496932513 0.3515151515151528  L 0.5337423312883436 11.951515151515151  C 0.17791411042944785 12.478787878787879  0 13.006060606060606  0.17791411042944785 13.533333333333333  C 0.3558282208588954 14.06060606060606  0.889570552147239 14.412121212121212  1.6012269938650308 14.412121212121212  L 3.3803680981595097 14.412121212121212  L 3.3803680981595097 24.254545454545454  C 3.411115421957512 26.862702442242547  5.5438901658281 28.969625371035914  8.184049079754603 29  L 20.460122699386503 29  C 21.171779141104295 29  21.883435582822084 28.296969696969697  21.883435582822084 27.593939393939394  C 21.883435582822084 26.89090909090909  21.171779141104295 26.187878787878788  20.460122699386503 26.187878787878788  L 14.05521472392638 26.187878787878788  L 14.05521472392638 17.927272727272726  Z " fill-rule="nonzero" fill="#478bf8" stroke="none" transform="matrix(1 0 0 1 299 140 )" />
  </g>
</svg>