<?xml version="1.0" encoding="utf-8"?>
<svg version="1.1" xmlns:xlink="http://www.w3.org/1999/xlink" width="10px" height="16px" xmlns="http://www.w3.org/2000/svg">
  <g transform="matrix(1 0 0 1 -322 -154 )">
    <path d="M 9.814814814814815 8.791208791208788  C 10 8.263736263736261  10 7.736263736263734  9.62962962962963 7.208791208791206  C 9.444444444444445 6.857142857142855  8.88888888888889 6.505494505494504  8.333333333333329 6.505494505494504  L 3.8888888888888835 6.505494505494504  L 6.296296296296297 2.109890109890107  C 6.666666666666666 1.4065934065934036  6.296296296296297 0.5274725274725248  5.555555555555555 0.17582417582417328  C 4.814814814814815 -0.17582417582418078  3.8888888888888835 0.17582417582417328  3.518518518518513 0.8791208791208763  L 0.18518518518518517 7.384615384615382  C 0 7.736263736263734  0 8.263736263736261  0.18518518518518517 8.791208791208788  C 0.37037037037037035 9.14285714285714  0.9259259259259258 9.494505494505491  1.4814814814814814 9.494505494505491  L 6.111111111111112 9.494505494505491  L 3.7037037037036984 13.890109890109885  C 3.333333333333328 14.59340659340659  3.7037037037036984 15.472527472527467  4.444444444444445 15.824175824175825  C 4.62962962962963 16  4.814814814814815 16  5.185185185185185 16  C 5.7407407407407405 16  6.296296296296297 15.648351648351644  6.481481481481481 15.296703296703292  L 9.814814814814815 8.791208791208788  Z " fill-rule="nonzero" fill="#478bf8" stroke="none" transform="matrix(1 0 0 1 322 154 )" />
  </g>
</svg>