<?xml version="1.0" encoding="utf-8"?>
<svg version="1.1" xmlns:xlink="http://www.w3.org/1999/xlink" width="71px" height="30px" xmlns="http://www.w3.org/2000/svg">
  <g transform="matrix(1 0 0 1 -41 -10 )">
    <path d="M 41.5 15  A 4.5 4.5 0 0 1 46 10.5 L 107 10.5  A 4.5 4.5 0 0 1 111.5 15 L 111.5 35  A 4.5 4.5 0 0 1 107 39.5 L 46 39.5  A 4.5 4.5 0 0 1 41.5 35 L 41.5 15  Z " fill-rule="nonzero" fill="#478bf8" stroke="none" />
    <path d="M 41.5 15  A 4.5 4.5 0 0 1 46 10.5 L 107 10.5  A 4.5 4.5 0 0 1 111.5 15 L 111.5 35  A 4.5 4.5 0 0 1 107 39.5 L 46 39.5  A 4.5 4.5 0 0 1 41.5 35 L 41.5 15  Z " stroke-width="1" stroke="#478bf8" fill="none" />
  </g>
</svg>