<?xml version="1.0" encoding="utf-8"?>
<svg version="1.1" xmlns:xlink="http://www.w3.org/1999/xlink" width="23px" height="24px" xmlns="http://www.w3.org/2000/svg">
  <g>
    <path d="M 1.1706530612244896 7.070787878787877  C 1.476204585042577 7.070780496089425  1.7676400054871773 7.203654644384189  1.9735408163265309 7.436848484848484  L 3.273158163265306 8.90921212121212  C 3.47905897410466 9.142405961676415  3.77049439454926 9.275280109971177  4.076045918367347 9.275272727272727  L 20.402408163265306 9.275272727272727  C 21.722561224489795 9.275272727272727  22.79276530612245 10.380727272727272  22.79276530612245 11.744363636363635  L 22.79276530612245 21.443878787878784  C 22.79276530612245 22.807515151515148  21.722561224489795 23.912969696969693  20.402408163265306 24  L 5.027964285714286 24  C 3.8245288668080173 23.913008304273326  2.66148479178803 23.464540094104812  1.75245918367347 22.64993939393939  L 1.5891122448979598 22.49745454545454  C 0.6296864759624655 21.581569376919564  0.08413117916618947 20.293437277444298  0 18.943999999999996  L 0 8.193090909090909  C 0.08420255907818612 7.573240453966651  0.5706855890527648 7.070787875173487  1.1707704081632657 7.070787878787877  Z M 2.3097397959183676 9.81660606060606  L 1.3879795918367348 8.772484848484849  L 1.3879795918367344 18.943999999999996  C 1.3879689248746139 19.917822473923533  1.781661729085687 20.847407028262264  2.4740255102040813 21.50836363636364  L 2.520494897959184 21.552727272727275  C 3.2031053512889076 22.20440005054375  4.098457832894113 22.56632174509046  5.027964285714286 22.56630303030303  L 20.402408163265306 22.56630303030303  C 21.002538806219196 22.56630303030303  21.48904081632653 22.063776579810078  21.48904081632653 21.443878787878788  L 21.48904081632653 11.744484848484849  C 21.48904081632653 11.124587056553558  21.002538806219196 10.622060606060607  20.402408163265306 11  L 4.076045918367347 11  C 3.403824728539536 10.622062224154439  2.762672335455656 10.32968985292444  2.3097397959183676 9.81660606060606  Z M 7.935117346938775 2.245212121212121  C 8.424688775510203 0.9696969696969697  9.629607142857143 0.08690909090909091  11.013479591836735 0.08690909090909091  C 12.437954081632656 0.08690909090909091  13.672913265306125 1.0223030303030305  14.133030612244898 2.358787878787879  L 18.3947193877551 2.358545454545455  C 18.665429280724588 2.358559688661598  18.92638591129297 2.4629484276958933  19.12649489795918 2.6512727272727274  L 22.6037193877551 5.923757575757575  C 22.82964315794554 6.136444866987304  22.958392458870943 6.437587833917109  22.958392458870943 6.753333349437407  C 22.958392458870943 7.373156890447669  22.472002628669674 7.875652579834464  21.87194387755102 8  L 4.563974489795918 8  C 4.27426341170251 7.875741149629575  3.996553634269699 7.756224670766147  3.7925357142857137 7.543757575757574  L 0.6501020408163265 4.271272727272727  C 0.4483077430823514 4.061057408835191  0.3350841798722255 3.7770070853908857  0.3350841798722255 3.480969695333676  C 0.3350841798722255 2.861095569875598  0.8215504329886305 2.3585789229021517  1.421658163265306 2.358545454545454  L 7.893811224489797 2.3587878787878784  L 7.935117346938775 2.245212121212121  Z M 11.013479591836735 1.4336969696969697  C 10.034336734693879 1.4336969696969697  9.202464285714287 2.1633939393939396  9.03641836734694 3.147636363636364  L 8.942423469387757 3.705575757575758  L 1.9432653061224499 3.705454545454546  L 4.654566326530613 7  L 21.31079081632653 7  L 18.310581632653065 3.705454545454545  L 13.084418367346938 3.7055757575757573  L 12.990423469387755 3.1477575757575753  C 12.82437755102041 2.163393939393939  11.992505102040816 1.4338181818181817  11.013479591836735 1.4338181818181817  Z " fill-rule="nonzero" fill="#8a8a8a" stroke="none" />
  </g>
</svg>