<?xml version="1.0" encoding="utf-8"?>
<svg version="1.1" xmlns:xlink="http://www.w3.org/1999/xlink" width="20px" height="17px" xmlns="http://www.w3.org/2000/svg">
  <g transform="matrix(1 0 0 1 -13 -21 )">
    <path d="M 2.5826771653543306 11.286111111111111  L 2.5826771653543306 16.150000000000002  C 2.5826771653543306 16.58466855310757  2.9352088584009506 16.937037037037037  3.370078740157481 16.937037037037037  C 3.8049486219140105 16.937037037037037  4.157480314960629 16.58466855310757  4.157480314960629 16.150000000000002  L 4.157480314960629 11.286111111111111  C 4.157480314960629 10.851442558003544  3.8049486219140105 10.499074074074073  3.370078740157481 10.499074074074073  C 2.9352088584009506 10.499074074074073  2.5826771653543306 10.851442558003544  2.5826771653543306 11.286111111111111  Z M 1.4330708661417235 6.516666666666663  L 1.4330708661417324 6.579629629629629  L 7.874015748031496 2.093518518518518  L 11.700787401574805 6.264814814814814  C 11.760444032766578 6.327584041268738  11.829512311079938 6.3806888891599565  11.905511811023622 6.4222222222222225  L 12.48818897637795 6.4222222222222225  C 12.57221672592243 6.398086728563102  12.651928845966996 6.360904960963303  12.724409448818895 6.312037037037036  L 19.480314960629915 1.5898148148148117  C 19.70955263254141 1.430195087979975  19.846193580442634 1.1686003457729774  19.846193580442634 0.8893518518518494  C 19.846193580442634 0.4178817174606784  19.46381449295271 0.03567965732607685  18.99212598425196 0.03567965732607685  C 18.81755542055021 0.03567965732607685  18.64717725287762 0.08914974658919418  18.50393700787401 0.18888888888888822  L 12.204724409448813 4.549074074074072  L 8.645669291338574 0.4092592592592584  C 8.355837610652637 0.10551025237431305  7.887575703634888 0.058705740464529574  7.543307086614167 0.2990740740740739  C 7.465576816848508 0.3195683116929067  7.391289256949596 0.3513910977686522  7.322834645669285 0.3935185185185185  L 0.45669291338581985 5.115740740740739  C 0.22745524147432533 5.275360467575573  0.09081429357309719 5.536955209782573  0.09081429357309719 5.816203703703701  C 0.09081429357309719 6.287673838094871  0.47319338106301817 6.669875898229473  0.9448818897637717 6.669875898229473  C 1.1194524534655186 6.669875898229473  1.2898306211381154 6.616405808966357  1.4330708661417235 6.516666666666663  Z M 7.291338582677165 7.980555555555553  L 7.291338582677165 16.150000000000002  C 7.291338582677165 16.58466855310757  7.643870275723785 16.937037037037037  8.078740157480317 16.937037037037037  C 8.513610039236845 16.937037037037037  8.866141732283465 16.58466855310757  8.866141732283465 16.150000000000002  L 8.866141732283465 7.980555555555553  C 8.866141732283465 7.545887002447985  8.513610039236845 7.193518518518517  8.078740157480317 7.193518518518517  C 7.643870275723785 7.193518518518517  7.291338582677165 7.545887002447985  7.291338582677165 7.980555555555553  Z M 16.645669291338585 7.980555555555553  L 16.645669291338585 16.150000000000002  C 16.645669291338585 16.58466855310757  16.998200984385207 16.937037037037037  17.433070866141737 16.937037037037037  C 17.867940747898267 16.937037037037037  18.220472440944885 16.58466855310757  18.220472440944885 16.150000000000002  L 18.220472440944885 7.980555555555553  C 18.220472440944885 7.545887002447985  17.867940747898267 7.193518518518517  17.433070866141737 7.193518518518517  C 16.998200984385207 7.193518518518517  16.645669291338585 7.545887002447985  16.645669291338585 7.980555555555553  Z M 11.984251968503939 11.286111111111111  L 11.984251968503939 16.150000000000002  C 11.984251968503939 16.58466855310757  12.336783661550559 16.937037037037037  12.771653543307089 16.937037037037037  C 13.206523425063617 16.937037037037037  13.559055118110239 16.58466855310757  13.559055118110239 16.150000000000002  L 13.559055118110239 11.286111111111111  C 13.559055118110239 10.851442558003544  13.206523425063617 10.499074074074073  12.771653543307089 10.499074074074073  C 12.336783661550559 10.499074074074073  11.984251968503939 10.851442558003544  11.984251968503939 11.286111111111111  Z " fill-rule="nonzero" fill="#2799ce" stroke="none" transform="matrix(1 0 0 1 13 21 )" />
  </g>
</svg>