<?xml version="1.0" encoding="utf-8"?>
<svg version="1.1" xmlns:xlink="http://www.w3.org/1999/xlink" width="24px" height="23px" xmlns="http://www.w3.org/2000/svg">
  <g transform="matrix(1 0 0 1 -10 -19 )">
    <path d="M 23.11741935483871 21.325850340136057  L 23.11741935483871 21  L 4.707096774193547 21  C 2.996795613427222 21.325850340136057  1.6103225806451622 19.924836632123572  2 18.196598639455786  L 2 0.7823129251700681  L 1.61032258064516 0.7823129251700681  C 1.61032258064516 0.3502534270031215  1.2637043224496445 0  0.8361290322580626 0  C 0.4085537420664808 0  0.061935483870966423 0.3502534270031215  0.061935483870966423 0.7823129251700681  C 0.061935483870966423 0.7823129251700681  0.061935483870966423 0.7823129251700681  0 0.7823129251700681  L 0 18.196598639455786  C 0.061935483870966423 20.788955628457465  2.1416450330440546 22.890476190476193  4.707096774193546 22.890476190476193  L 23.11741935483871 22.890476190476196  C 23.544994645030286 22.890476190476196  23.89161290322581 22.54022276347308  23.89161290322581 22.10816326530613  C 23.89161290322581 21.67610376713917  23.54499464503029 21.325850340136057  23.11741935483871 21.325850340136057  Z " fill-rule="nonzero" fill="#2799ce" stroke="none" transform="matrix(1 0 0 1 10 19 )" />
  </g>
</svg>