<?xml version="1.0" encoding="utf-8"?>
<svg version="1.1" xmlns:xlink="http://www.w3.org/1999/xlink" width="32px" height="17px" xmlns="http://www.w3.org/2000/svg">
  <g transform="matrix(1 0 0 1 -292 -24 )">
    <path d="M 19.93617021276596 13.522727272727272  L 29.829787234042552 3.541666666666667  L 29.829787234042552 9.65909090909091  C 29.829787234042552 10.303030303030305  30.25531914893617 10.732323232323232  30.893617021276597 10.732323232323232  C 31.53191489361702 10.732323232323232  31.95744680851064 10.303030303030305  31.95744680851064 9.65909090909091  L 31.95744680851064 2.1464646464646466  C 31.95744680851064 0.9659090909090908  31 0  29.829787234042552 0  L 22.382978723404257 0  C 21.74468085106383 0  21.319148936170212 0.4292929292929293  21.319148936170212 1.0732323232323233  C 21.319148936170212 1.7171717171717171  21.74468085106383 2.1464646464646466  22.382978723404257 2.1464646464646466  L 28.23404255319149 2.1464646464646466  L 19.19148936170213 11.268939393939393  L 12.382978723404255 4.400252525252525  C 12.170212765957446 4.1856060606060606  11.851063829787234 4.078282828282828  11.638297872340425 4.078282828282828  C 11.319148936170214 4.078282828282828  11.106382978723405 4.185606060606058  10.893617021276595 4.400252525252525  L 0.36170212765957505 15.025252525252526  C -0.0638297872340418 15.454545454545453  -0.0638297872340418 16.098484848484848  0.36170212765957505 16.52777777777778  C 0.7872340425531921 16.957070707070702  1.4255319148936176 16.957070707070702  1.8510638297872346 16.52777777777778  L 11.638297872340425 6.654040404040405  L 18.4468085106383 13.522727272727272  C 18.659574468085108 13.737373737373737  18.97872340425532 13.84469696969697  19.19148936170213 13.84469696969697  C 19.51063829787234 13.84469696969697  19.72340425531915 13.737373737373737  19.93617021276596 13.522727272727272  Z " fill-rule="nonzero" fill="#fe9400" stroke="none" transform="matrix(1 0 0 1 292 24 )" />
  </g>
</svg>