<?xml version="1.0" encoding="utf-8"?>
<svg version="1.1" xmlns:xlink="http://www.w3.org/1999/xlink" width="7px" height="7px" xmlns="http://www.w3.org/2000/svg">
  <g transform="matrix(1 0 0 1 -20 -23 )">
    <path d="M 3.5 0.0857843137254902  C 1.5670033755922244 0.0857843137254902  0 1.622062132933553  0 3.517156862745098  C 0 5.412251592556643  1.5670033755922244 6.9485294117647065  3.5 6.9485294117647065  C 5.432996624407775 6.9485294117647065  7 5.412251592556643  7 3.517156862745098  C 7 1.622062132933553  5.432996624407775 0.0857843137254902  3.5 0.0857843137254902  Z M 3.5 5.232843137254902  C 2.5334309131704487 5.232606292278194  1.7499999453261694 4.464344722568369  1.7499999453261694 3.5167279411764696  C 1.7499999453261694 2.5689436598260156  2.5336975330225386 1.8006126914962435  3.500437500000001 1.8006126914962435  C 4.467444086829552 1.8008495900747417  5.250875054673831 2.569111159784569  5.250875054673831 3.5167279411764696  C 5.250875054673831 4.464512222526923  4.467177466977464 5.232843190856693  3.500437500000001 5.232843190856693  Z " fill-rule="nonzero" fill="#ff3b30" stroke="none" transform="matrix(1 0 0 1 20 23 )" />
  </g>
</svg>