<?xml version="1.0" encoding="utf-8"?>
<svg version="1.1" xmlns:xlink="http://www.w3.org/1999/xlink" width="12px" height="22px" xmlns="http://www.w3.org/2000/svg">
  <g transform="matrix(1 0 0 1 -11 -55 )">
    <path d="M 11.706122448979592 20.3438202247191  L 2.9020408163265303 11.457303370786516  C 2.6571428571428566 11.21011235955056  2.6571428571428566 10.802247191011235  2.9020408163265303 10.55505617977528  L 11.742857142857142 1.6561797752808989  C 11.987755102040815 1.408988764044944  11.987755102040815 1.0011235955056181  11.742857142857142 0.7539325842696627  L 11.228571428571428 0.2348314606741569  C 10.983673469387753 -0.012359550561798147  10.579591836734691 -0.012359550561798147  10.334693877551018 0.2348314606741569  L 0.4040816326530613 10.221348314606741  C 0.6000000000000001 10.035955056179775  0.8571428571428571 9.924719101123596  1.1387755102040817 9.924719101123596  C 0.5510204081632655 9.924719101123596  0.07346938775510232 10.406741573033708  0.07346938775510232 11  C 0.07346938775510232 11.593258426966292  0.5510204081632657 12.075280898876404  1.1387755102040817 12.075280898876404  C 0.8448979591836738 12.075280898876404  0.5877551020408166 11.964044943820227  0.3918367346938777 11.766292134831462  L 10.29795918367347 21.765168539325842  C 10.542857142857144 22.012359550561797  10.946938775510205 22.012359550561797  11.191836734693876 21.765168539325842  L 11.706122448979592 21.246067415730337  C 11.951020408163266 20.998876404494382  11.951020408163266 20.591011235955055  11.706122448979592 20.3438202247191  Z " fill-rule="nonzero" fill="#169bd5" stroke="none" transform="matrix(1 0 0 1 11 55 )" />
  </g>
</svg>