<?xml version="1.0" encoding="utf-8"?>
<svg version="1.1" xmlns:xlink="http://www.w3.org/1999/xlink" width="24px" height="24px" xmlns="http://www.w3.org/2000/svg">
  <g transform="matrix(1 0 0 1 -15 -8 )">
    <path d="M 0.03630700733418296 12.029613400829083  C 0.014525247130102024 5.409671460459183  5.323156281887756 0.10850498246173465  11.985560395408164 0.09724699457908165  C 18.641234215561223 0.08611138392857144  23.964427184311226 5.376019874043368  23.96381534598214 12.000734215561224  C 23.963203507653063 18.625570934311224  18.63903156887755 23.915112316645413  11.983969587053572 23.902630628188774  C 5.34371431760204 23.890271316964288  0.05808876753826504 18.63768549107143  0.03630700733418296 12.029613400829083  Z M 11.583699178890306 22.35098614477041  C 17.17781809630102 22.60208822544643  22.150545009566326 18.273391693239795  22.406664245854593 12.386442689732142  C 22.61885285395408 6.979793757971938  18.45670111607143 1.9201845344387753  12.416667952806122 1.6490138552295917  C 6.819122688137755 1.3977893973214286  1.8402772959183675 5.729545192920918  1.5961502630739801 11.613802040816324  C 1.3718470742984699 17.0213075653699  5.545256823979592 22.079937818877546  11.583699178890306 22.35098614477041  Z " fill-rule="nonzero" fill="#ffffff" stroke="none" transform="matrix(1 0 0 1 15 8 )" />
  </g>
</svg>