<?xml version="1.0" encoding="utf-8"?>
<svg version="1.1" xmlns:xlink="http://www.w3.org/1999/xlink" width="9px" height="15px" xmlns="http://www.w3.org/2000/svg">
  <g transform="matrix(1 0 0 1 -334 -20 )">
    <path d="M 8.84536082474229 7.154308617234449  C 8.94845360824743 7.25450901803606  9 7.369739478957911  9 7.5  C 9 7.63026052104209  8.94845360824743 7.74549098196394  8.84536082474229 7.84569138276555  L 1.639175257731933 14.849699398797583  C 1.5360824742267931 14.949899799599194  1.4175257731959054 15  1.283505154639212 15  C 1.1494845360824606 15  1.030927835051573 14.949899799599194  0.9278350515463749 14.849699398797583  L 0.15463917525770984 14.098196392785553  C 0.05154639175256995 13.99799599198397  0 13.882765531062148  0 13.75250501002003  C 0 13.62224448897797  0.05154639175256995 13.50701402805609  0.15463917525770984 13.406813627254508  L 6.231958762886565 7.5  L 0.15463917525770984 1.5931863727454925  C 0.05154639175256995 1.4929859719439094  0 1.3777555110220305  0 1.2474949899799697  C 0 1.117234468937852  0.05154639175256995 1.00200400801603  0.15463917525770984 0.9018036072144184  L 0.9278350515463749 0.15030060120241728  C 1.030927835051573 0.05010020040080576  1.1494845360824606 0  1.283505154639212 0  C 1.4175257731959054 0  1.5360824742267931 0.05010020040080576  1.639175257731933 0.15030060120241728  L 8.84536082474229 7.154308617234449  Z " fill-rule="nonzero" fill="#cccccc" stroke="none" transform="matrix(1 0 0 1 334 20 )" />
  </g>
</svg>