<?xml version="1.0" encoding="utf-8"?>
<svg version="1.1" xmlns:xlink="http://www.w3.org/1999/xlink" width="79px" height="72px" xmlns="http://www.w3.org/2000/svg">
  <g transform="matrix(1 0 0 1 -107 -36 )">
    <path d="M 70.47392884990253 71  C 78.04568615984405 71.64564782326185  81.1424707602339 66.21013385315139  77.3566306042885 59.546775828460035  L 46.37307699805068 5.09985834957765  C 42.583771929824564 -1.556675763482778  36.39058771929825 -1.556675763482778  32.60074366471735 5.09985834957765  L 1.6172670565302143 59.546775828460035  C -2.171576023391813 66.2101338531514  0.928211500974659 71.64564782326185  8.49996881091618 71  L 70.47392884990253 71  Z M 41.93583333333333 57.0051371020143  L 41.93583333333333 61.885307342430146  L 37.03498440545809 61.885307342430146  L 37.03498440545809 57.0051371020143  L 41.93583333333333 57.0051371020143  Z M 42 17.963928525016247  L 42 47.244873294346974  L 37 47.244873294346974  L 37 17.963928525016247  L 42 17.963928525016247  Z " fill-rule="nonzero" fill="#fe9400" stroke="none" transform="matrix(1 0 0 1 107 36 )" />
  </g>
</svg>