<?xml version="1.0" encoding="utf-8"?>
<svg version="1.1" xmlns:xlink="http://www.w3.org/1999/xlink" width="20px" height="20px" xmlns="http://www.w3.org/2000/svg">
  <g transform="matrix(1 0 0 1 -338 -14 )">
    <path d="M 18.588663959703947 0.26639675164473675  L 10 8.855060731907896  L 1.4113360402960529 0.26639675164473703  C 1.0944085103907089 -0.047926247666376556  0.5833242815500806 -0.04792624766637665  0.2663967516447368 0.2663967516447368  C 0.11400060342862199 0.41792317345472496  0.02831184686242706 0.6239598058023723  0.02831184686242706 0.8388663959703951  C 0.02831184686242706 1.053772986138418  0.11400060342862171 1.259809618486065  0.26639675164473675 1.4113360402960529  L 8.855060731907896 10  L 0.26639675164473703 18.588663959703947  C -0.047926247666375904 18.905591489609293  -0.047926247666375904 19.416675718449923  0.2663967516447368 19.733603248355266  C 0.4179231734547244 19.88599939657138  0.6239598058023725 19.971688153137574  0.8388663959703951 19.971688153137574  C 1.0537729861384189 19.971688153137574  1.2598096184860648 19.885999396571382  1.4113360402960529 19.733603248355262  L 10 11.144939268092104  L 18.588663959703947 19.733603248355262  C 18.900404851973683 20.045344140624998  19.417004050164476 20.04939272203947  19.733603248355266 19.733603248355266  C 19.88599939657138 19.58207682654528  19.971688153137574 19.376040194197632  19.971688153137574 19.161133604029608  C 19.971688153137574 18.946227013861584  19.885999396571382 18.740190381513937  19.733603248355262 18.588663959703947  L 11.144939268092104 10  L 19.733603248355266 1.4113360402960529  C 20.047926247666375 1.0944085103907089  20.047926247666375 0.5833242815500804  19.733603248355266 0.2663967516447368  C 19.58207682654528 0.11400060342862171  19.376040194197632 0.02831184686242706  19.161133604029608 0.02831184686242706  C 18.946227013861584 0.02831184686242706  18.740190381513937 0.11400060342862171  18.588663959703947 0.26639675164473675  Z " fill-rule="nonzero" fill="#000000" stroke="none" fill-opacity="0.19607843137254902" transform="matrix(1 0 0 1 338 14 )" />
  </g>
</svg>