<?xml version="1.0" encoding="utf-8"?>
<svg version="1.1" xmlns:xlink="http://www.w3.org/1999/xlink" width="20px" height="20px" xmlns="http://www.w3.org/2000/svg">
  <g transform="matrix(1 0 0 1 -15 -16 )">
    <path d="M 19.895833325195312 2.1875  C 19.895833325195312 1.0416666748046874  18.958333325195316 0.10416667480468744  17.8125 0.10416667480468744  L 2.1875 0.10416667480468744  C 1.0416666748046874 0.10416667480468744  0.10416667480468744 1.0416666748046874  0.10416667480468744 2.1875  L 0.10416667480468744 14.6875  C 0.10416667480468744 15.833333325195312  1.0416666748046874 16.770833325195312  2.1875 16.770833325195312  L 2.1875 18.333333325195312  C 2.1875 19.21875  2.864583325195312 19.895833325195312  3.75 19.895833325195312  C 4.635416674804687 19.895833325195312  5.3125 19.21875  5.3125 18.333333325195312  L 5.3125 16.770833325195312  L 8.4375 16.770833325195312  L 8.4375 18.333333325195312  C 8.4375 19.21875  9.114583325195312 19.895833325195312  10 19.895833325195312  C 10.885416674804688 19.895833325195312  11.5625 19.21875  11.5625 18.333333325195312  L 11.5625 16.770833325195312  L 14.6875 16.770833325195312  L 14.6875 18.333333325195312  C 14.6875 19.21875  15.364583325195312 19.895833325195312  16.25 19.895833325195312  C 17.135416674804688 19.895833325195312  17.8125 19.21875  17.8125 18.333333325195312  L 17.8125 16.770833325195312  C 18.958333325195312 16.770833325195312  19.895833325195312 15.833333325195316  19.895833325195312 14.6875  L 19.895833325195312 2.1875  Z M 11.041666674804686 5.052083325195312  C 11.041666674804686 4.635416650390624  11.406249999999998 4.270833325195312  11.822916674804686 4.270833325195312  L 14.947916674804688 4.270833325195312  C 15.364583349609376 4.270833325195312  15.729166674804688 4.635416650390624  15.729166674804688 5.052083325195312  C 15.729166674804688 5.468749999999999  15.364583349609376 5.833333325195312  14.947916674804688 5.833333325195312  L 11.822916674804686 5.833333325195312  C 11.406249999999998 5.833333325195312  11.041666674804686 5.468749999999999  11.041666674804686 5.052083325195312  Z M 8.177083325195309 10.312499999999998  L 8.17708332519531 12.552083325195312  C 8.072916650390624 13.645833325195312  7.4479166503906225 14.270833325195312  6.30208332519531 14.322916674804684  C 5.104166650390623 14.21875  4.4791666503906225 13.645833349609372  4.374999999999998 12.552083325195312  L 4.374999999999998 10.312499999999998  C 4.374999999999998 9.999999999999998  4.531249999999997 9.84375  4.843749999999997 9.84375  C 5.156249999999998 9.84375  5.312499999999998 9.999999999999998  5.312499999999998 10.312499999999998  L 5.312499999999998 12.5  C 5.364583325195309 13.125  5.67708332519531 13.489583325195312  6.302083325195309 13.541666674804684  C 6.8749999999999964 13.489583349609372  7.1874999999999964 13.124999999999996  7.239583325195309 12.5  L 7.239583325195309 10.312499999999998  C 7.239583325195309 9.999999999999998  7.395833325195309 9.84375  7.708333325195309 9.84375  C 8.020833325195309 9.84375  8.177083325195309 9.999999999999998  8.177083325195309 10.312499999999998  Z M 8.958333325195312 5.052083325195312  C 8.958333325195312 5.468749999999999  8.59375 5.833333325195312  8.17708332519531 5.833333325195312  L 7.395833325195312 5.833333325195312  L 7.395833325195312 6.614583325195312  C 7.395833325195312 7.03125  7.03125 7.395833325195312  6.614583325195312 7.395833325195312  C 6.197916650390624 7.395833325195312  5.833333325195312 7.03125  5.833333325195312 6.614583325195312  L 5.833333325195312 5.833333325195312  L 5.052083325195312 5.833333325195312  C 4.635416650390624 5.833333325195312  4.270833325195312 5.468749999999999  4.270833325195312 5.052083325195312  C 4.270833325195312 4.635416650390624  4.635416650390624 4.270833325195312  5.052083325195312 4.270833325195312  L 5.833333325195312 4.270833325195312  L 5.833333325195312 3.489583325195312  C 5.833333325195312 3.0729166503906242  6.197916650390624 2.708333325195312  6.614583325195312 2.708333325195312  C 7.03125 2.708333325195312  7.395833325195312 3.0729166503906242  7.395833325195312 3.489583325195312  L 7.395833325195312 4.270833325195312  L 8.177083325195312 4.270833325195312  C 8.59375 4.270833325195312  8.958333325195312 4.635416650390624  8.958333325195312 5.052083325195312  Z M 12.395833325195312 11.458333325195312  C 12.343749999999996 12.291666650390628  11.82291665039062 12.760416650390628  10.833333325195312 12.864583325195314  L 10.156249999999996 12.864583325195314  L 10.156249999999996 13.90625  C 10.156249999999996 14.21875  9.999999999999996 14.322916674804688  9.687499999999996 14.322916674804688  C 9.374999999999996 14.322916674804688  9.218749999999996 14.166666674804688  9.218749999999996 13.90625  L 9.218749999999996 10.416666674804688  C 9.218749999999996 10.104166674804688  9.374999999999996 9.94791667480469  9.687499999999996 9.94791667480469  L 10.833333325195312 9.94791667480469  C 11.82291665039062 10.000000000000004  12.343749999999996 10.520833349609376  12.395833325195312 11.458333325195312  Z M 16.145833325195312 13.072916674804688  C 16.09375 13.802083349609376  15.572916650390624 14.270833349609376  14.531249999999996 14.322916674804688  C 13.541666674804684 14.322916674804688  13.020833325195312 14.062500000000004  13.020833325195312 13.645833325195312  C 13.020833325195312 13.385416650390628  13.177083325195312 13.229166650390624  13.437499999999998 13.229166674804688  C 13.541666674804684 13.229166674804688  13.645833325195312 13.28125  13.854166674804688 13.333333325195312  C 14.114583349609376 13.437499999999998  14.322916674804688 13.489583325195312  14.479166674804688 13.489583325195312  C 14.895833349609376 13.489583325195312  15.104166674804688 13.28125  15.104166674804688 12.968749999999998  C 15.104166674804688 12.760416674804686  14.843750000000004 12.604166674804686  14.322916674804688 12.447916674804684  C 13.59375 12.395833349609372  13.177083349609378 11.979166674804683  13.020833325195312 11.249999999999996  C 13.072916650390628 10.364583325195309  13.59375 9.895833325195307  14.583333325195312 9.843749999999995  C 15.364583325195312 9.895833325195307  15.78125 10.10416667480468  15.78125 10.468749999999996  C 15.78125 10.781249999999996  15.625000000000004 10.937499999999996  15.364583325195312 10.937499999999996  C 15.3125 10.937499999999996  15.208333325195312 10.937499999999996  15 10.885416674804684  C 14.791666674804691 10.833333349609372  14.635416674804691 10.781249999999996  14.53125 10.781249999999996  C 14.21875 10.781249999999996  14.010416674804688 10.937499999999996  14.010416674804688 11.197916674804686  C 14.010416674804688 11.354166674804686  14.270833349609372 11.510416674804684  14.739583325195312 11.666666674804688  C 15.520833325195312 11.71875  15.989583325195312 12.1875  16.145833325195312 13.072916674804688  Z " fill-rule="nonzero" fill="#169bd5" stroke="none" transform="matrix(1 0 0 1 15 16 )" />
  </g>
</svg>