<?xml version="1.0" encoding="utf-8"?>
<svg version="1.1" xmlns:xlink="http://www.w3.org/1999/xlink" width="20px" height="20px" xmlns="http://www.w3.org/2000/svg">
  <g transform="matrix(1 0 0 1 -15 -14 )">
    <path d="M 20 3.7331556789108196  C 19.976054799107146 2.9359584247076027  19.34229720982143 2.287680144371345  18.56361870535714 2.287680144371345  L 14.589320959821425 2.287680144371345  L 14.589320959821425 0.6652653737207602  C 14.589320959821425 0.31293055555555555  14.310495044642856 0.02725495705409364  13.96589363839286 0.02725495705409364  C 13.621315089285712 0.02725495705409364  13.342466316964286 0.31293055555555555  13.342466339285714 0.6652653737207602  L 13.342466339285714 2.287680144371345  L 7.344486674107143 2.287680144371345  L 7.344486674107143 0.6652653737207602  C 7.344486674107143 0.31293055555555555  7.065660758928571 0.02725495705409364  6.721059352678571 0.02725495705409364  C 6.37645794642857 0.02725495705409364  6.09763203125 0.31293055555555555  6.09763203125 0.6652653737207602  L 6.09763203125 2.287680144371345  L 1.4500154241071426 2.287680144371345  C 0.6713597767857143 2.287680144371345  0.03757933035714274 2.9359584247076027  0 3.7331556789108196  L 0 18.521230423062867  C 0.03757933035714274 19.31842767726608  0.6713597767857139 19.966705957602343  1.4500154241071426 20  L 18.563618705357147 20  C 19.342274352678576 19.966705957602343  19.976054799107146 19.31842767726608  20 18.521230423062867  L 20 3.7331556789108196  Z M 18.729223013392858 18.521230423062867  C 18.72912224940586 18.614787841843714  18.655037668851573 18.690605395042546  18.56361870535714 18.690708516081873  L 1.4500154241071426 18.690708516081873  C 1.3585964606127114 18.690605395042546  1.2845118800584252 18.614787841843714  1.2844111160714287 18.521230423062867  L 1.2844111160714287 3.73315567891082  C 1.2845118800584254 3.6395982601299712  1.358596460612713 3.563780706931137  1.4500154241071426 3.5636775858918135  L 6.097654888392857 3.5636775858918135  L 6.097654888392857 5.041547149122807  C 6.097654888392857 5.393881967288012  6.376480803571428 5.679557565789475  6.72108220982143 5.679557565789475  C 7.0656836160714285 5.679557565789475  7.344509531250001 5.393881967288012  7.344509531250001 5.041547149122807  L 7.344509531250001 3.5636775858918135  L 13.342489174107143 3.5636775858918135  L 13.342489174107143 5.041547149122807  C 13.342489174107143 5.393881967288012  13.621315089285718 5.679557565789475  13.965916495535716 5.679557565789475  C 14.310495044642856 5.679557565789475  14.589343816964284 5.393881967288012  14.589343816964284 5.041547149122807  L 14.589343816964284 3.5636775858918135  L 18.563641562500003 3.5636775858918135  C 18.655060525994433 3.563780706931139  18.729145106548717 3.6395982601299712  18.729245870535717 3.7331556789108196  L 18.729245870535717 18.521230423062867  Z " fill-rule="nonzero" fill="#29ca2f" stroke="none" transform="matrix(1 0 0 1 15 14 )" />
  </g>
</svg>