<?xml version="1.0" encoding="utf-8"?>
<svg version="1.1" xmlns:xlink="http://www.w3.org/1999/xlink" width="22px" height="21px" xmlns="http://www.w3.org/2000/svg">
  <g transform="matrix(1 0 0 1 -13 -14 )">
    <path d="M 7.659959709433963 20.479904731569732  C 7.541237000000001 20.753953118070417  7.270080213207548 20.919103331063994  6.984999149056605 20.919103331063994  C 6.889727837735849 20.919103331063994  6.792257958490566 20.901073824158726  6.6991852150943405 20.862130118653962  C 2.6296346584905663 19.160866566815795  0.00014656981132075473 15.242695818906828  0.00014656981132075473 10.878114660571873  C 0.00014656981132075473 4.90385981034818  4.921276052830189 0.04310684010892748  10.969538364150942 0.04310684010892748  C 17.018533566037735 0.04310684010892748  21.940395898113206 4.90385981034818  21.940395898113206 10.878114660571873  C 21.940395898113206 15.187164952343903  19.435493352830193 19.102450988134606  15.558683986792452 20.85347594145108  C 15.192255867924528 21.018626154444657  14.7554735754717 20.860687752382805  14.58691665283019 20.498655411398563  C 14.418359709433961 20.136623070414316  14.579588079245282 19.7082421668936  14.947481896226417 19.542370780976466  C 18.30469621698113 18.025729294884265  20.474683464150942 14.624644577903133  20.474683464150942 10.878114660571873  C 20.474683464150942 5.699321326590158  16.210926018867927 1.4854667798093748  10.969538364150942 1.4854667798093748  C 5.7296164490566035 1.4854667798093748  1.465859003773585 5.699321326590158  1.465859003773585 10.878114660571873  C 1.465859003773585 14.66286711048434  3.7450418188679246 18.060345942423655  7.2715459113207555 19.533716603773584  C 7.644569733962264 19.689491487064775  7.818256662264151 20.11354531219607  7.659959709433963 20.479904731569732  Z " fill-rule="nonzero" fill="#999999" stroke="none" transform="matrix(1 0 0 1 13 14 )" />
  </g>
</svg>