<?xml version="1.0" encoding="utf-8"?>
<svg version="1.1" xmlns:xlink="http://www.w3.org/1999/xlink" width="80px" height="80px" xmlns="http://www.w3.org/2000/svg">
  <g transform="matrix(1 0 0 1 -65 -5 )">
    <path d="M 79.89342485549133 39.84645953757226  C 79.89342485549133 34.47064667630058  78.83995664739885 29.254154624277454  76.76228323699422 24.341853323699425  C 74.75605130057804 19.59853684971099  71.88448338150289 15.339234104046245  68.2274205202312 11.682261560693643  C 64.5704479768786 8.025198699421967  60.3110549132948 5.153630780346823  55.56773843930635 3.147398843930638  C 50.6555274566474 1.069725433526012  45.43903540462428 0.016257225433526014  40.0632225433526 0.016257225433526014  C 34.687409682080926 0.016257225433526014  29.4709176300578 1.069725433526012  24.558616329479772 3.1473988439306364  C 19.815299855491336 5.153630780346821  15.555997109826592 8.025198699421967  11.89902456647399 11.682261560693641  C 8.241961705202312 15.339324421965316  5.37039378612717 19.59862716763006  3.3641618497109853 24.341853323699418  C 1.286488439306358 29.254154624277454  0.23302023121387283 34.47064667630058  0.23302023121387283 39.84645953757226  C 0.23302023121387283 45.222272398843934  1.286488439306358 50.438764450867055  3.3641618497109835 55.350975433526  C 4.110187861271678 57.114794075144516  4.977149566473989 58.81105491329479  5.9590859826589595 60.43451950867051  L 0.8818641618497107 65.51183164739884  L 18.290191473988436 68.1282514450867  L 15.673771676300579 50.71992413294797  L 9.919978323699423 56.47371748554913  C 7.1343027456647405 51.44084176300578  5.652095375722544 45.757857658959544  5.652095375722544 39.84645953757226  C 5.652095375722544 30.65489523121387  9.231484826589595 22.01354768786127  15.730852601156066 15.514089595375719  C 22.230220375722546 9.014631502890174  30.871658236994218 5.435332369942197  40.0632225433526 5.435332369942197  C 49.25478684971098 5.435332369942197  57.89613439306358 9.014721820809248  64.39559248554913 15.514089595375719  C 70.89496026011561 22.01354768786127  74.47434971098266 30.65489523121387  74.47434971098266 39.84645953757226  C 74.47434971098266 49.03802384393064  70.89496026011561 57.67937138728324  64.39559248554913 64.1788294797688  C 57.89613439306358 70.67819725433526  49.25478684971098 74.25758670520231  40.0632225433526 74.25758670520231  C 38.26725072254335 74.25758670520231  36.492413294797686 74.12021315028903  34.75027095375723 73.85187861271676  C 34.04841040462428 75.64008309248555  33.34618858381503 77.41311416184972  32.71387283236994 79.00180635838151  C 35.11994219653179 79.45050578034682  37.57442196531792 79.67675216763004  40.0632225433526 79.67675216763004  C 45.43903540462428 79.67675216763004  50.6555274566474 78.62328395953756  55.56773843930635 76.54561054913296  C 60.3110549132948 74.53937861271676  64.5704479768786 71.66781069364163  68.2274205202312 68.01074783236993  C 71.88448338150289 64.35377528901734  74.75605130057802 60.09438222543353  76.76228323699422 55.35106575144509  C 78.83995664739885 50.438764450867055  79.89342485549133 45.222272398843934  79.89342485549133 39.84645953757226  Z M 34.565570809248555 52.25225794797687  C 34.63999277456648 52.33480852601156  34.71856936416185 52.413565751445084  34.801119942196536 52.487987716763  L 34.80319725433527 52.48988439306358  C 35.36217485549133 52.9919617052023  36.10079479768786 53.297597543352595  36.91094653179191 53.297597543352595  C 37.72100794797688 53.297597543352595  38.45971820809249 52.991871387283226  39.01833453757226 52.490065028901725  L 39.02077312138729 52.48789739884393  C 39.10332369942197 52.41365606936415  39.181809971098275 52.33507947976878  39.256051300578044 52.252528901734095  L 62.53513367052024 28.973536849710975  C 63.7652637283237 27.743406791907503  63.7652637283237 25.74873554913294  62.53504335260117 24.518334537572244  C 61.304822976878626 23.288114161849705  59.30997109826591 23.288114161849705  58.07975072254336 24.518424855491322  L 36.91094653179191 45.68722904624278  L 24.665643063583815 33.44201589595376  C 23.43542268786127 32.21179552023122  21.440751445086704 32.21179552023122  20.210440751445084 33.44210621387283  C 18.980039739884386 34.67232658959537  18.98013005780346 36.66699783236994  20.210440751445084 37.89721820809248  L 34.565570809248555 52.25225794797687  Z " fill-rule="nonzero" fill="#29ca2f" stroke="none" transform="matrix(1 0 0 1 65 5 )" />
  </g>
</svg>