<?xml version="1.0" encoding="utf-8"?>
<svg version="1.1" xmlns:xlink="http://www.w3.org/1999/xlink" width="49px" height="49px" xmlns="http://www.w3.org/2000/svg">
  <g transform="matrix(1 0 0 1 -163 -202 )">
    <path d="M 37.872047301136355 4  L 37.87204730113636 3.3370675781249997  C 38.44727519531251 3.3370675781249997  38.9372841796875 3.965557350852273  39 4.705896999289773  L 39 44  L 10 44  L 10 4.711223171164773  C 9.110651473721592 3.965557350852273  9.600660458096591 3.342393803267046  10.175888352272727 4  L 37.872047301136355 4  Z M 42 4.711223171164773  C 42.13299481534091 2.1866117365056823  40.22622080965908 0.1413569424715914  37.872047301136355 1  L 10.175888352272725 1  C 7.821714843749998 0.14135694247159236  5.914940838068179 2.186611736505683  6 4.705896999289774  L 6 44.668258593750004  L 0.16266168323863409 44.668258593750004  L 0.16266168323863409 47  L 47.88527397017045 47  L 47.88527397017045 44.668258593750004  L 42 44.668258593750004  L 42 4.711223171164773  Z " fill-rule="nonzero" fill="#cccccc" stroke="none" transform="matrix(1 0 0 1 163 202 )" />
  </g>
</svg>