<?xml version="1.0" encoding="utf-8"?>
<svg version="1.1" xmlns:xlink="http://www.w3.org/1999/xlink" width="10px" height="10px" xmlns="http://www.w3.org/2000/svg">
  <g transform="matrix(1 0 0 1 -295 -22 )">
    <path d="M 9.968551377118644 8.84864936440678  C 9.968551377118644 9.454449152542372  9.47695974576271 9.947695974576272  8.871159957627118 9.947695974576272  L 1.1513506355932204 9.947695974576272  C 0.5472060381355932 9.947695974576272  0.05395921610169492 9.456104343220339  0.05395921610169492 8.850304555084746  L 0.05395921610169492 1.1288400423728813  C 0.05395921610169492 0.5246954449152542  0.5455508474576272 0.03144862288135593  1.1513506355932204 0.03144862288135593  L 8.871159957627118 0.03144862288135593  C 9.475304555084746 0.03144862288135593  9.968551377118644 0.5230402542372882  9.968551377118644 1.1288400423728813  L 9.968551377118644 2.378509004237288  C 9.968551377118644 2.7078919491525424  9.7020656779661 2.9743776483050848  9.372682733050846 2.9743776483050848  C 9.043299788135592 2.9743776483050848  8.776814088983048 2.7078919491525424  8.776814088983048 2.378509004237288  L 8.776814088983048 1.2248411016949152  L 1.245696504237287 1.2248411016949152  L 1.245696504237287 8.75595868644068  L 8.776814088983048 8.75595868644068  L 8.776814088983048 6.567796610169491  C 8.776814088983048 6.238413665254238  9.043299788135592 5.971927966101695  9.372682733050846 5.971927966101695  C 9.7020656779661 5.971927966101695  9.968551377118644 6.238413665254238  9.968551377118644 6.567796610169491  L 9.968551377118644 8.84864936440678  Z " fill-rule="nonzero" fill="#2799ce" stroke="none" transform="matrix(1 0 0 1 295 22 )" />
  </g>
</svg>