<?xml version="1.0" encoding="utf-8"?>
<svg version="1.1" xmlns:xlink="http://www.w3.org/1999/xlink" width="10px" height="10px" xmlns="http://www.w3.org/2000/svg">
  <g transform="matrix(1 0 0 1 -301 -16 )">
    <path d="M 9.9609375 8.864539194915254  C 9.9609375 9.470338983050848  9.469345868644067 9.96193061440678  8.863546080508474 9.96193061440678  L 1.1437367584745763 9.96193061440678  C 0.5395921610169492 9.96193061440678  0.04634533898305085 9.470338983050846  0.04634533898305085 8.864539194915254  L 0.04634533898305085 7.614870233050848  C 0.04634533898305085 7.285487288135593  0.3128310381355932 7.01900158898305  0.6422139830508475 7.01900158898305  C 0.9715969279661018 7.01900158898305  1.238082627118644 7.285487288135593  1.238082627118644 7.614870233050848  L 1.238082627118644 8.768538135593221  L 8.769200211864407 8.768538135593221  L 8.769200211864407 1.2374205508474583  L 1.2380826271186454 1.2374205508474583  L 1.2380826271186454 3.423927436440679  C 1.2380826271186454 3.7533103813559325  0.9715969279661018 4.019796080508476  0.6422139830508488 4.019796080508476  C 0.31283103813559443 4.019796080508476  0.04634533898305205 3.7533103813559325  0.04634533898305205 3.423927436440679  L 0.04634533898305205 1.144729872881356  C 0.04634533898305205 0.5405852754237288  0.537936970338983 0.04733845338983051  1.1437367584745775 0.04733845338983051  L 8.863546080508476 0.04733845338983051  C 9.467690677966104 0.04733845338983051  9.9609375 0.5389300847457628  9.9609375 1.144729872881356  L 9.9609375 8.864539194915254  Z " fill-rule="nonzero" fill="#2799ce" stroke="none" transform="matrix(1 0 0 1 301 16 )" />
  </g>
</svg>