<?xml version="1.0" encoding="utf-8"?>
<svg version="1.1" xmlns:xlink="http://www.w3.org/1999/xlink" width="22px" height="18px" xmlns="http://www.w3.org/2000/svg">
  <g transform="matrix(1 0 0 1 -50 -448 )">
    <path d="M 11.001273140190971 1.0999999921875003  C 14.640185169270831 1.0999999921875003  18.095254613715277 2.3145000000000002  20.89796297092014 4.512  C 21.08370155011639 4.654111604568318  21.19230377668565 4.8723861253829295  21.19230377668565 5.103581778424042  C 21.19230377668565 5.517795340797136  20.85029907169529 5.853581778424041  20.428414887796762 5.853581778424041  C 20.252049496925455 5.853581778424041  20.081117217772434 5.7936646949419135  19.944629637586804 5.683999992187499  C 17.409791666666663 3.6967499999999998  14.290069444444443 2.5999999921874997  11.001273140190971 2.5999999921874997  C 7.711458333333332 2.5999999921874997  4.590717584635415 3.697500000000001  2.0553703624131927 5.6860000078125  C 1.918882876557375 5.795664403520242  1.747950843008033 5.855581303129683  1.5715857231971475 5.855581303129683  C 1.1497015392986243 5.855581303129683  0.8076968343082587 5.519794865502778  0.8076968343082587 5.105581303129682  C 0.8076968343082587 4.874385917147954  0.9162988112093144 4.6561116175202955  1.1020370290798596 4.513999992187499  C 3.9050000000000002 2.3155000078125  7.361087970920138 1.0999999921875003  11.001273140190971 1.0999999921875003  Z M 15.278287029079863 11.499499992187502  C 15.470400957673087 11.641181918123303  15.583435388961158 11.863344018660019  15.583435388961158 12.099249996093754  C 15.583435388961158 12.513518897437967  15.241384992109847 12.849350196164709  14.819444444444446 12.849350196164709  C 14.653947912189487 12.849350196164709  14.492926242414168 12.79658778821008  14.360601859809028 12.699  C 13.392109877121342 11.98363795482305  12.21246779952247 11.597807323484242  11.000509251302084 11.5999999921875  C 9.770138888888889 11.5999999921875  8.601898140190972 11.989749984374999  7.6393981401909725 12.699499992187501  C 7.50534169660221 12.801806048417903  7.3403901350008445 12.857345623101555  7.170599387958364 12.857345623101555  C 6.748715204059842 12.857345623101555  6.406710499069476 12.52155918547465  6.406710499069476 12.107345623101555  C 6.406710499069476 11.86721714829007  6.5238203717676235 11.641607446717503  6.721712970920141 11.500500000000002  C 7.955014532980568 10.589442596492862  9.457110534751635 10.097789027506465  11.000509251302084 10.099999992187502  C 12.564189806857641 10.099999992187502  14.053518502604168 10.596499992187498  15.27828702907986 11.499750000000002  Z M 11.00076388888889 5.5999999921875  C 13.682013888888891 5.5999999921875  16.234421304253473 6.450999984375  18.33384258463542 7.999249992187502  C 18.525894959745237 8.140916050088066  18.638889149348433 8.36302686456178  18.638889149348433 8.598874992187499  C 18.638889149348433 9.013088695793014  18.29688432774636 9.348875247911415  17.875 9.348875247911415  C 17.709499357194133 9.348875247911415  17.548475134172133 9.296103209034689  17.416157415364584 9.1984999921875  C 15.579259251302085 7.843750007812499  13.34844908203125 7.0999999921875006  11.00076388888889 7.0999999921875006  C 8.652569444444445 7.0999999921875006  6.420995362413196 7.844249999999999  4.584097222222223 9.1995  C 4.450882095573716 9.299480294353206  4.287862040445582 9.353648304031303  4.120183831820279 9.353648304031303  C 3.6982996479217563 9.353648304031303  3.3562949429313904 9.017861866404395  3.3562949429313904 8.603648304031301  C 3.3562949429313904 8.365724320676868  3.4712761935018706 8.141912947734172  3.666157415364584 8.0005000078125  C 5.765833333333332 6.4515  8.318495362413195 5.5999999921875  11.00076388888889 5.5999999921875  Z M 11 17.599999992187502  C 10.156231632202955 17.599999992187502  9.472222222222223 16.928427116933694  9.472222222222223 16.0999999921875  C 9.472222222222223 15.271572867441309  10.156231632202955 14.599999992187502  11 14.599999992187502  C 11.843768367797045 14.599999992187502  12.527777777777777 15.271572867441309  12.527777777777777 16.0999999921875  C 12.527777777777777 16.928427116933694  11.843768367797045 17.599999992187502  11 17.599999992187502  Z " fill-rule="nonzero" fill="#cccccc" stroke="none" transform="matrix(1 0 0 1 50 448 )" />
  </g>
</svg>