<?xml version="1.0" encoding="utf-8"?>
<svg version="1.1" xmlns:xlink="http://www.w3.org/1999/xlink" width="50px" height="32px" xmlns="http://www.w3.org/2000/svg">
  <g transform="matrix(1 0 0 1 -75 -100 )">
    <path d="M 76 121.83845811051694  C 76 121.83845811051694  76 103  76 103  C 76 101.8954305003384  76.8954305003384 101  78 101  C 78 101  122 101  122 101  C 123.10456949966158 101  124 101.8954305003384  124 103  C 124 103  124 121.83845811051694  124 121.83845811051694  C 124 122.94302761017852  123.10456949966158 123.83845811051694  122 123.83845811051694  C 122 123.83845811051694  108.52825101811871 123.83845811051694  108.52825101811871 123.83845811051694  C 108.52825101811871 123.83845811051694  100.65158480277965 130.1985480429966  100.65158480277965 130.1985480429966  C 100.65158480277965 130.1985480429966  93.2522922974611 123.83845811051694  93.2522922974611 123.83845811051694  C 93.2522922974611 123.83845811051694  78 123.83845811051694  78 123.83845811051694  C 76.8954305003384 123.83845811051694  76 122.94302761017852  76 121.83845811051694  Z " fill-rule="nonzero" fill="#1da823" stroke="none" />
  </g>
</svg>